<svg width="256" height="256" viewBox="0 0 256 256" fill="none" xmlns="http://www.w3.org/2000/svg">
<path d="M47.216 217.608L29.248 16H226.752L208.76 217.576L127.88 240L47.216 217.608Z" fill="#1572B6"/>
<path d="M128 222.864L193.36 204.744L208.736 32.488H128V222.864Z" fill="#33A9DC"/>
<path d="M128 105.528H160.72L162.976 80.208H128V55.48H190L189.408 62.112L183.336 130.256H128V105.528V105.528Z" fill="white"/>
<path d="M128.152 169.744L128.04 169.776L100.504 162.336L98.7439 142.616H73.9199L77.3839 181.44L128.032 195.504L128.152 195.472V169.744V169.744Z" fill="#EBEBEB"/>
<path d="M158.616 129.208L155.64 162.32L128.064 169.76V195.488L178.752 181.44L179.128 177.264L183.424 129.208H158.616V129.208Z" fill="white"/>
<path d="M128.088 55.48V80.208H68.36L67.864 74.648L66.736 62.112L66.144 55.48H128.088V55.48ZM128 105.528V130.256H100.808L100.312 124.696L99.192 112.16L98.6 105.528H128V105.528Z" fill="#EBEBEB"/>
</svg>
