<svg width="600" height="400" viewBox="0 0 600 400" fill="none" xmlns="http://www.w3.org/2000/svg">
<path d="M496.336 111.856L494.84 108.152C482.224 76.88 453.824 54.632 420.576 51.352C416.297 50.924 411.992 50.8117 407.696 51.016C376.728 52.528 347 70.896 331.472 98.112C322.336 114.112 317.36 133.44 303.104 145C284.552 160.04 257.856 156.24 234.584 151.688C211.312 147.136 184.576 143.4 166.096 158.528C154.512 168 148.84 183.2 147.2 198.16C142.872 237.744 164.48 277.304 196.4 300.432C228.32 323.56 269.016 331.816 308.336 330.4C363.408 328.368 418.944 307.144 456.872 266.536C494.8 225.928 512.672 165.056 496.336 111.856Z" fill="#43C5F3"/>
<path d="M272.228 80.5107C274.878 64.3793 263.949 49.1538 247.818 46.5035C231.687 43.8532 216.461 54.7818 213.811 70.9131C211.16 87.0445 222.089 102.27 238.22 104.92C254.352 107.571 269.577 96.642 272.228 80.5107Z" fill="#43C5F3"/>
<path d="M575.328 379.688C575.328 379.8 452.048 379.896 300.016 379.896C147.984 379.896 24.672 379.8 24.672 379.688C24.672 379.576 147.928 379.48 300.016 379.48C452.104 379.48 575.328 379.568 575.328 379.688Z" fill="#1C88C7"/>
<path d="M183.88 379.592L188.368 346.608L284.032 342.048L290.768 379.688L183.88 379.592Z" fill="#263238"/>
<path d="M273.52 242.792L302.216 274.64C306.952 279.896 310.376 284.68 317.184 286.6C321.984 287.944 332 288.504 334.536 285.368C338.016 281.072 340.136 273.64 335.336 264.296C332.136 258.208 304.312 233.344 304.312 233.344L273.52 242.792Z" fill="#C27461"/>
<path d="M282.968 248.112C283.136 249.712 290.64 265.344 290.64 265.344L315.28 249.272C315.28 249.272 299.416 211.592 287.832 209.056L282.968 248.112Z" fill="#EF4D3B"/>
<path d="M325.16 204.192L325.512 192.192L324.712 176.944L322.312 164.256C322.312 164.256 321.672 163.016 320.072 163.952C318.472 164.888 319.856 171.816 319.856 171.816L320.112 177.024C320.112 177.024 319.168 181.024 318.872 180.696C318.576 180.368 317.568 173.336 317.568 173.336L314.656 158.248C314.445 157.782 314.064 157.415 313.591 157.222C313.118 157.028 312.589 157.023 312.112 157.208C311.08 157.528 310.408 159.032 310.512 161.264C310.616 163.496 311.608 167.272 311.712 168.544C311.816 169.816 312.656 177.152 312.656 177.152L307.56 160.28C307.56 160.28 306.616 154.784 304.36 155.576C302.104 156.368 303.6 160.304 303.704 161.976C303.808 163.648 307.096 175.2 306.816 178.4C306.536 181.6 306.016 180 306.016 180L303.616 170.552C302.576 166.384 301 163.968 299.192 163.664C297.384 163.36 299.808 173.016 299.808 173.016L302.864 186.512L302.104 190.808L299.096 186.944C299.096 186.944 299.008 181.88 295.848 179.744C292.688 177.608 291.848 180 291.848 180L297.744 199.608C299.144 202.808 308.184 209.048 308.184 209.048L309.784 228.704L329.864 228.304L325.16 204.192Z" fill="#C27461"/>
<path d="M318.112 197.112C318.016 197.208 317.064 196.248 315.432 194.864C313.8 193.48 311.28 191.664 308.088 191.824C306.764 191.845 305.485 192.31 304.456 193.144L304.12 193.44L303.824 193.048C302.536 191.352 301.16 189.848 300.336 188.8C299.512 187.752 299.048 187.024 299.136 186.968C299.718 187.411 300.254 187.913 300.736 188.464C302.079 189.783 303.355 191.169 304.56 192.616L303.928 192.52C305.079 191.518 306.546 190.952 308.072 190.92C309.708 190.867 311.327 191.257 312.76 192.048C313.896 192.682 314.943 193.465 315.872 194.376C317.416 195.936 318.192 197.04 318.112 197.112Z" fill="#7D4336"/>
<path d="M312.904 272.64L308.648 211.464L325.656 206.136L338 272.64H312.904Z" fill="#C27461"/>
<path d="M276.064 132.872C277.743 133.16 279.468 132.815 280.907 131.904C282.346 130.993 283.396 129.581 283.854 127.941C284.311 126.3 284.145 124.549 283.386 123.024C282.626 121.5 281.329 120.311 279.744 119.688C280.852 118.674 281.613 117.336 281.92 115.866C282.226 114.395 282.062 112.865 281.45 111.492C280.839 110.12 279.811 108.975 278.513 108.219C277.215 107.463 275.711 107.134 274.216 107.28C274.239 105.8 273.878 104.339 273.169 103.04C272.46 101.741 271.426 100.647 270.168 99.8666C268.91 99.0859 267.472 98.6444 265.993 98.585C264.514 98.5257 263.044 98.8506 261.728 99.528C260.145 98.0693 258.118 97.1848 255.973 97.0165C253.827 96.8482 251.687 97.4059 249.896 98.6C248.473 98.2577 246.978 98.3799 245.629 98.9486C244.28 99.5173 243.149 100.503 242.401 101.761C241.652 103.019 241.326 104.483 241.47 105.94C241.614 107.396 242.22 108.769 243.2 109.856" fill="#000638"/>
<path d="M276.928 171.2C277.464 163.648 277.312 148 277.008 133.864C276.846 126.531 273.93 119.527 268.84 114.246C263.75 108.964 256.858 105.792 249.536 105.36L248.032 105.272C231.704 105.272 222.576 119.128 223.016 135.448L220.504 198.304L230.4 207.2C232.498 209.097 235.001 210.491 237.718 211.276C240.436 212.06 243.296 212.214 246.082 211.727C248.869 211.239 251.507 210.123 253.797 208.462C256.086 206.802 257.967 204.641 259.296 202.144L260.056 188.328C260.056 188.328 275.816 186.848 276.928 171.2Z" fill="#C27461"/>
<path d="M260.16 188.344C252.894 187.924 245.902 185.425 240.016 181.144C240.016 181.144 244.176 192.688 259.864 192.2L260.16 188.344Z" fill="#7D4336"/>
<path d="M270.096 147.088C270.067 147.671 269.812 148.219 269.384 148.617C268.957 149.014 268.391 149.229 267.808 149.216C267.522 149.221 267.239 149.17 266.973 149.064C266.708 148.958 266.467 148.8 266.263 148.6C266.06 148.399 265.898 148.16 265.789 147.896C265.679 147.633 265.623 147.35 265.624 147.064C265.653 146.481 265.908 145.933 266.336 145.535C266.763 145.138 267.329 144.923 267.912 144.936C268.198 144.931 268.481 144.982 268.747 145.088C269.012 145.194 269.253 145.352 269.457 145.552C269.66 145.753 269.822 145.992 269.931 146.256C270.041 146.519 270.097 146.802 270.096 147.088Z" fill="#263238"/>
<path d="M273.192 141.352C272.896 141.624 271.28 140.272 268.88 140.136C266.48 140 264.64 141.096 264.4 140.792C264.28 140.656 264.592 140.144 265.392 139.632C266.474 138.971 267.734 138.661 269 138.744C270.25 138.817 271.445 139.282 272.416 140.072C273.12 140.688 273.336 141.224 273.192 141.352Z" fill="#263238"/>
<path d="M248.04 147.088C248.011 147.671 247.756 148.219 247.328 148.617C246.901 149.014 246.335 149.229 245.752 149.216C245.466 149.222 245.182 149.171 244.916 149.066C244.65 148.96 244.408 148.803 244.205 148.602C244.001 148.401 243.84 148.162 243.73 147.898C243.621 147.633 243.566 147.35 243.568 147.064C243.595 146.482 243.849 145.933 244.275 145.536C244.701 145.138 245.265 144.923 245.848 144.936C246.134 144.93 246.419 144.981 246.685 145.086C246.951 145.191 247.194 145.349 247.398 145.55C247.602 145.75 247.764 145.99 247.875 146.254C247.985 146.518 248.041 146.802 248.04 147.088Z" fill="#263238"/>
<path d="M249.544 140.408C249.248 140.68 247.632 139.328 245.224 139.192C242.816 139.056 240.992 140.152 240.752 139.848C240.624 139.704 240.936 139.2 241.744 138.688C242.825 138.024 244.086 137.714 245.352 137.8C246.601 137.867 247.795 138.333 248.76 139.128C249.464 139.744 249.688 140.28 249.544 140.408Z" fill="#263238"/>
<path d="M257.216 158.744C257.216 158.608 258.72 158.432 261.16 158.272C261.776 158.272 262.368 158.152 262.496 157.744C262.581 157.111 262.475 156.468 262.192 155.896C261.701 154.376 261.187 152.776 260.648 151.096C258.52 144.288 257.024 138.712 257.296 138.632C257.568 138.552 259.52 143.992 261.648 150.792C262.181 152.472 262.667 154.072 263.104 155.592C263.442 156.347 263.504 157.196 263.28 157.992C263.18 158.204 263.033 158.389 262.85 158.535C262.667 158.681 262.453 158.782 262.224 158.832C261.877 158.903 261.522 158.93 261.168 158.912C258.728 158.96 257.216 158.88 257.216 158.744Z" fill="#263238"/>
<path d="M250.04 160C250.432 160 250.288 162.616 252.44 164.592C254.592 166.568 257.36 166.456 257.36 166.824C257.36 166.984 256.712 167.288 255.536 167.256C254.007 167.186 252.551 166.58 251.424 165.544C250.343 164.549 249.692 163.171 249.608 161.704C249.536 160.592 249.864 160 250.04 160Z" fill="#263238"/>
<path d="M250.72 131.024C250.448 131.664 248.064 131.208 245.224 131.384C242.384 131.56 240.056 132.184 239.72 131.584C239.568 131.296 240 130.704 240.96 130.128C242.231 129.424 243.647 129.018 245.098 128.944C246.55 128.869 247.999 129.126 249.336 129.696C250.352 130.176 250.84 130.72 250.72 131.024Z" fill="#263238"/>
<path d="M272.72 134.344C272.264 134.864 270.64 134.2 268.656 134.056C266.672 133.912 264.952 134.208 264.6 133.608C264.448 133.32 264.744 132.808 265.512 132.32C266.538 131.756 267.709 131.511 268.874 131.617C270.04 131.722 271.148 132.173 272.056 132.912C272.728 133.512 272.92 134.088 272.72 134.344Z" fill="#263238"/>
<path d="M275.928 126.632C275.928 126.632 272.376 116.6 267.792 114.032C262.24 110.928 259.408 117.056 254.048 115.216C248.688 113.376 243.384 110.416 237.568 114.28C231.168 118.528 233.872 121.928 233.08 128.848C229.88 156.888 224.28 164.544 223.608 151.208C223.536 149.744 219.608 148.352 219.336 142.184C219.032 134.184 219.296 124.512 221.408 118.984C223.184 114.312 226.088 111.192 231.168 107.848C239.168 102.584 249.736 103.048 256.856 104.224C263.976 105.4 277.304 114.4 275.928 126.632Z" fill="#000638"/>
<path d="M224.632 150.84C224.646 150.265 224.544 149.693 224.331 149.159C224.117 148.624 223.798 148.139 223.392 147.731C222.986 147.324 222.502 147.003 221.968 146.788C221.435 146.573 220.863 146.468 220.288 146.48C217.36 146.584 214.016 148.08 213.848 154.088C213.56 164.8 224.376 162.888 224.4 162.576C224.424 162.264 224.552 155.32 224.632 150.84Z" fill="#C27461"/>
<path d="M222.184 158.48C222.136 158.48 221.992 158.608 221.672 158.744C221.222 158.922 220.722 158.922 220.272 158.744C219.152 158.296 218.248 156.472 218.248 154.544C218.247 153.622 218.452 152.712 218.848 151.88C218.957 151.549 219.145 151.249 219.396 151.006C219.647 150.764 219.953 150.586 220.288 150.488C220.504 150.439 220.731 150.467 220.929 150.566C221.127 150.665 221.285 150.83 221.376 151.032C221.512 151.336 221.44 151.544 221.496 151.568C221.552 151.592 221.728 151.392 221.656 150.944C221.599 150.678 221.456 150.439 221.248 150.264C221.106 150.149 220.942 150.063 220.766 150.012C220.59 149.961 220.406 149.946 220.224 149.968C219.783 150.041 219.368 150.227 219.019 150.507C218.67 150.788 218.399 151.153 218.232 151.568C217.752 152.486 217.502 153.508 217.504 154.544C217.504 156.704 218.568 158.752 220.104 159.24C220.389 159.331 220.691 159.357 220.987 159.315C221.284 159.274 221.567 159.166 221.816 159C222.152 158.736 222.216 158.504 222.184 158.48Z" fill="#7D4336"/>
<path d="M226.064 130.136C227.392 131.168 228.808 132.232 230.464 132.536C232.12 132.84 234.104 131.952 234.464 130.312C234.632 129.576 234.464 128.712 235.024 128.152C235.584 127.592 236.72 127.776 237.608 127.928C239.163 128.142 240.744 127.815 242.086 127C243.428 126.186 244.449 124.934 244.976 123.456C245.704 124.688 247.552 124.744 248.8 124.04C250.048 123.336 250.896 122.12 251.896 121.096C252.896 120.072 254.296 119.192 255.672 119.496C256.472 119.656 257.168 120.168 257.968 120.144C259.384 120.104 260.16 118.496 260.456 117.12C260.752 115.744 261.016 114.12 262.248 113.432C263.48 112.744 264.792 113.288 266.08 113.552C267.368 113.816 269.048 113.616 269.448 112.368C269.524 112.033 269.531 111.685 269.469 111.347C269.407 111.009 269.278 110.687 269.088 110.4C268.295 109.061 267.076 108.027 265.625 107.464C264.174 106.902 262.576 106.842 261.088 107.296C260.666 105.485 259.717 103.841 258.36 102.57C257.003 101.299 255.3 100.459 253.466 100.155C251.632 99.8523 249.749 100.1 248.056 100.867C246.362 101.634 244.934 102.886 243.952 104.464C242.877 103.367 241.553 102.546 240.093 102.07C238.633 101.595 237.08 101.478 235.565 101.731C234.05 101.984 232.619 102.599 231.392 103.523C230.166 104.447 229.181 105.654 228.52 107.04C227.228 106.614 225.84 106.578 224.528 106.937C223.216 107.296 222.039 108.035 221.145 109.059C220.251 110.084 219.679 111.35 219.501 112.699C219.323 114.047 219.547 115.418 220.144 116.64C218.16 117.624 216.4 119.432 216.232 121.648C216.064 123.864 218.088 126.184 220.232 125.728C219.715 126.576 219.548 127.592 219.766 128.562C219.983 129.531 220.569 130.378 221.399 130.924C222.229 131.469 223.239 131.672 224.215 131.487C225.191 131.303 226.058 130.747 226.632 129.936" fill="#000638"/>
<path d="M261.688 110.4C261.688 110.4 261.688 110.472 261.688 110.6C261.688 110.728 261.648 110.92 261.584 111.168C261.398 111.884 261.095 112.566 260.688 113.184C260.041 114.165 259.179 114.986 258.168 115.584C256.83 116.389 255.266 116.737 253.712 116.576L253.912 116.352C254.173 117.344 254.032 118.399 253.52 119.288C252.984 120.219 252.315 121.068 251.536 121.808C251.154 122.238 250.728 122.627 250.264 122.968C249.74 123.283 249.147 123.464 248.536 123.496C247.9 123.55 247.26 123.447 246.673 123.196C246.085 122.944 245.569 122.553 245.168 122.056L245.568 121.968C245.357 123.072 244.917 124.119 244.274 125.041C243.632 125.963 242.802 126.74 241.84 127.32C240.781 128.012 239.526 128.341 238.264 128.256C237.079 128.134 235.923 127.809 234.848 127.296L235.144 127.184C234.512 128.446 233.574 129.53 232.416 130.336C231.885 130.743 231.269 131.025 230.614 131.164C229.96 131.302 229.282 131.293 228.632 131.136C227.523 130.827 226.528 130.2 225.771 129.333C225.013 128.466 224.525 127.397 224.368 126.256L224.608 126.384C223.445 126.916 222.133 127.029 220.896 126.704C219.974 126.478 219.118 126.037 218.4 125.416C217.954 125.02 217.578 124.552 217.288 124.032C217.18 123.856 217.099 123.664 217.048 123.464C217.421 124.154 217.92 124.767 218.52 125.272C219.231 125.849 220.066 126.255 220.96 126.456C222.133 126.737 223.367 126.607 224.456 126.088L224.664 125.984V126.216C224.831 127.279 225.301 128.272 226.017 129.075C226.734 129.878 227.667 130.457 228.704 130.744C229.297 130.881 229.912 130.884 230.506 130.753C231.1 130.621 231.657 130.358 232.136 129.984C233.226 129.215 234.109 128.186 234.704 126.992L234.8 126.792L234.992 126.88C236.024 127.365 237.13 127.676 238.264 127.8C239.431 127.871 240.591 127.562 241.568 126.92C242.474 126.371 243.255 125.639 243.862 124.771C244.47 123.904 244.89 122.919 245.096 121.88L245.192 121.376L245.496 121.792C245.853 122.228 246.31 122.57 246.828 122.791C247.347 123.011 247.911 123.102 248.472 123.056C249.013 123.031 249.54 122.874 250.008 122.6C250.444 122.282 250.846 121.92 251.208 121.52C251.961 120.813 252.612 120.005 253.144 119.12C253.618 118.32 253.759 117.366 253.536 116.464L253.464 116.2L253.728 116.24C255.208 116.412 256.704 116.1 257.992 115.352C258.981 114.795 259.834 114.024 260.488 113.096C261.053 112.28 261.46 111.366 261.688 110.4Z" fill="#1C88C7"/>
<path d="M284.8 263.712L285.936 252.32L289.864 210.552C287.84 208.432 279.712 205.096 279.712 205.096L259.536 197.84C259.536 197.84 257.6 203.376 242.4 203.6C226.896 203.832 220.472 194.136 220.472 194.136C212.728 196.624 195.808 203.048 195.808 203.048L190.04 257.384L189.744 275.32L186.176 366.664C186.176 366.664 287.776 362.352 289.296 362.088L285.176 329.192L284.8 263.712Z" fill="#EF4D3B"/>
<path opacity="0.3" d="M188.344 311.928L188.048 319.528C188.048 319.528 252.232 307.896 263.448 303.376C277.288 297.776 284.712 293.064 284.712 293.064L284.944 287.272L188.344 311.928Z" fill="black"/>
<path d="M192.8 207.616C192.8 207.616 178.336 209.928 175.352 228.416C173.432 240.312 167.616 292.712 175.568 306.816C184.768 323.104 267.848 295.776 267.848 295.776L270.688 274.688L206.688 278.928L198.688 234.488L192.8 207.616Z" fill="#C27461"/>
<path d="M169.6 269.6H210.176L199.072 201.928C199.072 201.928 175.816 206.64 172.776 230.936C169.704 255.424 169.6 269.6 169.6 269.6Z" fill="#EF4D3B"/>
<path d="M174.704 269.6C174.762 269.593 174.822 269.593 174.88 269.6H175.416L177.464 269.56L185.032 269.496L210.176 269.432L209.968 269.664C209.92 269.136 209.872 268.568 209.824 268C208.976 257.792 208.224 248.552 207.64 241.824C207.384 238.504 207.176 235.8 207.024 233.888C206.968 232.976 206.912 232.288 206.88 231.728C206.88 231.504 206.88 231.32 206.88 231.168C206.869 231.104 206.869 231.04 206.88 230.976C206.905 231.037 206.918 231.102 206.92 231.168L206.984 231.72C207.04 232.248 207.12 232.968 207.208 233.88C207.392 235.784 207.648 238.48 207.96 241.8C208.552 248.528 209.368 257.76 210.264 267.968C210.312 268.536 210.36 269.096 210.408 269.624V269.848H210.184L185.04 269.784L177.472 269.72L175.424 269.68H174.888C174.76 269.6 174.704 269.6 174.704 269.6Z" fill="#263238"/>
<path d="M287.832 228.464C287.873 228.924 287.873 229.388 287.832 229.848C287.832 230.736 287.76 232.024 287.688 233.608C287.52 236.808 287.192 241.168 286.736 245.992C286.28 250.816 285.792 255.184 285.408 258.344C285.216 259.944 285.056 261.192 284.928 262.072C284.887 262.531 284.806 262.986 284.688 263.432C284.68 262.972 284.707 262.512 284.768 262.056C284.856 261.104 284.976 259.84 285.12 258.312C285.432 255.112 285.856 250.744 286.32 245.952C286.784 241.16 287.2 236.8 287.416 233.6C287.528 232.072 287.624 230.8 287.688 229.848C287.707 229.384 287.755 228.922 287.832 228.464Z" fill="#263238"/>
<path d="M210.808 221.096C210.622 220.868 210.469 220.614 210.352 220.344C210.04 219.76 209.664 219.056 209.216 218.232C208.029 215.899 206.568 213.716 204.864 211.728C203.136 209.77 200.932 208.293 198.464 207.44C197.418 207.143 196.347 206.942 195.264 206.84C195.553 206.777 195.85 206.759 196.144 206.784C196.957 206.801 197.764 206.925 198.544 207.152C201.107 207.949 203.401 209.435 205.176 211.448C206.907 213.458 208.355 215.694 209.48 218.096C209.928 219.008 210.28 219.752 210.496 220.272C210.632 220.533 210.737 220.81 210.808 221.096Z" fill="#263238"/>
<path opacity="0.3" d="M205.544 272.64C205.472 272.24 212.56 270.512 212.56 270.512L207.368 236.912L210.176 269.6H204.984L205.544 272.64Z" fill="black"/>
<path d="M311.808 275.68L310.552 292.952L304.816 300.152L290.776 318.784L307.784 319.896C307.784 319.896 327.728 314.936 330.664 308.792C333.6 302.648 333.776 275.656 333.776 275.656L311.808 275.68Z" fill="#FFCFB4"/>
<path d="M395.848 218.152L396.808 150.952C397.424 134.952 389.472 121.128 373.472 120.952L372 121.024C364.827 121.372 358.047 124.405 353.008 129.521C347.969 134.638 345.039 141.463 344.8 148.64C344.344 162.504 344 177.832 344.456 185.232C345.336 200.56 360.8 202.216 360.8 202.216C360.8 202.688 360.8 206.504 360.712 211.072V218.688L395.848 218.152Z" fill="#FFCFB4"/>
<path d="M360.752 202.216C360.752 202.216 370.44 202.32 380.432 195.368C380.432 195.368 376.096 206.8 360.728 206.144L360.752 202.216Z" fill="#FF9D64"/>
<path d="M369.8 156.48C370.136 156.576 371.688 155.456 374.184 154.88C376.68 154.304 378.704 154.552 378.928 154.328C379.152 154.104 378.656 153.992 377.768 153.856C376.479 153.705 375.173 153.786 373.912 154.096C372.685 154.364 371.522 154.87 370.488 155.584C369.816 156.072 369.64 156.44 369.8 156.48Z" fill="#263238"/>
<path d="M372.272 161.216C372.297 161.759 372.534 162.271 372.931 162.642C373.329 163.013 373.856 163.213 374.4 163.2C374.665 163.209 374.928 163.164 375.175 163.069C375.422 162.974 375.648 162.831 375.839 162.648C376.03 162.464 376.182 162.244 376.286 162.001C376.391 161.758 376.446 161.497 376.448 161.232C376.429 160.691 376.199 160.179 375.808 159.805C375.416 159.431 374.893 159.225 374.352 159.232C374.083 159.219 373.815 159.261 373.563 159.355C373.311 159.448 373.081 159.593 372.887 159.778C372.692 159.964 372.537 160.187 372.432 160.434C372.326 160.681 372.272 160.947 372.272 161.216Z" fill="#263238"/>
<path d="M363.472 173.216C363.472 173.08 362 172.896 359.608 172.704C359.008 172.704 358.432 172.584 358.312 172.176C358.228 171.558 358.337 170.929 358.624 170.376C359.12 168.888 359.64 167.336 360.224 165.704C362.384 159.064 363.92 153.616 363.648 153.528C363.376 153.44 361.408 158.76 359.248 165.4L357.76 170.096C357.415 170.848 357.344 171.697 357.56 172.496C357.662 172.698 357.807 172.874 357.986 173.012C358.164 173.151 358.371 173.248 358.592 173.296C358.931 173.369 359.278 173.399 359.624 173.384C361.984 173.408 363.472 173.352 363.472 173.216Z" fill="#263238"/>
<path d="M371.68 145.952C371.912 146.528 373.976 146.152 376.424 146.336C378.872 146.52 380.88 147.136 381.224 146.584C381.352 146.328 380.984 145.784 380.16 145.264C379.081 144.626 377.868 144.249 376.617 144.166C375.367 144.083 374.114 144.294 372.96 144.784C372 145.2 371.576 145.68 371.68 145.952Z" fill="#263238"/>
<path d="M347.2 150.08C347.456 150.552 349.472 150.08 351.896 150.08C354.32 150.08 356.32 150.432 356.592 149.952C356.704 149.728 356.32 149.296 355.48 148.912C354.355 148.427 353.137 148.192 351.912 148.224C350.674 148.234 349.453 148.507 348.328 149.024C347.512 149.416 347.112 149.856 347.2 150.08Z" fill="#263238"/>
<path d="M396.08 162.584C396.352 162.464 407.08 159.072 406.968 170.096C406.856 181.12 395.808 178.728 395.768 178.416C395.728 178.104 396.08 162.584 396.08 162.584Z" fill="#FFCFB4"/>
<path d="M399.2 174.272C399.256 174.272 399.392 174.408 399.72 174.56C400.173 174.763 400.687 174.78 401.152 174.608C402.32 174.192 403.32 172.352 403.392 170.368C403.431 169.425 403.258 168.484 402.888 167.616C402.788 167.269 402.606 166.952 402.357 166.691C402.107 166.431 401.798 166.235 401.456 166.12C401.236 166.062 401.002 166.082 400.795 166.177C400.588 166.271 400.42 166.435 400.32 166.64C400.168 166.944 400.24 167.168 400.176 167.184C400.112 167.2 399.944 166.992 400.04 166.544C400.101 166.27 400.257 166.026 400.48 165.856C400.631 165.743 400.802 165.661 400.985 165.614C401.167 165.567 401.357 165.557 401.544 165.584C401.996 165.679 402.416 165.888 402.763 166.192C403.111 166.496 403.374 166.885 403.528 167.32C403.99 168.276 404.207 169.331 404.16 170.392C404.072 172.616 402.912 174.68 401.312 175.128C401.015 175.211 400.704 175.225 400.4 175.171C400.097 175.117 399.81 174.996 399.56 174.816C399.2 174.536 399.2 174.288 399.2 174.272Z" fill="#FF9D64"/>
<path d="M347.432 155.328C347.672 155.576 349.56 155.456 352 156.256C354.44 157.056 356.048 158.296 356.352 158.216C356.496 158.216 356.288 157.808 355.592 157.248C354.554 156.468 353.391 155.87 352.152 155.48C350.97 155.073 349.721 154.892 348.472 154.944C347.64 155.008 347.312 155.2 347.432 155.328Z" fill="#263238"/>
<path d="M350.4 160.96C350.421 161.502 350.652 162.014 351.045 162.388C351.438 162.761 351.962 162.967 352.504 162.96C352.768 162.969 353.031 162.924 353.278 162.829C353.525 162.734 353.75 162.591 353.94 162.407C354.13 162.224 354.282 162.004 354.385 161.761C354.489 161.518 354.543 161.256 354.544 160.992C354.525 160.451 354.295 159.939 353.904 159.565C353.512 159.191 352.989 158.985 352.448 158.992C352.183 158.983 351.92 159.028 351.673 159.123C351.426 159.218 351.2 159.361 351.009 159.544C350.818 159.728 350.666 159.948 350.562 160.191C350.457 160.434 350.402 160.695 350.4 160.96Z" fill="#263238"/>
<path d="M324.4 134.4C324.598 133.788 325.029 133.28 325.6 132.984C326.816 132.304 328.192 132.432 329.52 132.448C332.842 132.46 336.123 131.722 339.12 130.288C338.095 129.756 337.16 129.065 336.352 128.24C334.712 126.512 333.8 123.912 334.632 121.672C334.689 121.454 334.795 121.253 334.942 121.082C335.089 120.911 335.273 120.777 335.48 120.688C336.16 120.504 336.744 121.184 337.2 121.72C338.712 123.504 340.136 124.288 342.456 124.12C343.854 124.066 345.221 123.696 346.456 123.04L346.592 122.904C347.152 122.352 347.696 121.832 348.192 121.304C352.192 117.504 355.672 114.904 359.192 113.568C364.344 111.648 372.904 111.032 378.184 112.56C383.464 114.088 388.144 118.536 388.744 124C391.792 121.552 396.272 121.688 399.864 123.248L399.96 123.208C403.96 124.752 406.16 129.088 407.248 133.248C407.312 133.472 407.36 133.704 407.416 133.928C408.723 136.149 410.545 138.023 412.728 139.392C413.112 139.624 413.528 139.92 413.592 140.368C413.656 140.816 413.24 141.168 412.864 141.432C411.87 142.096 410.742 142.53 409.56 142.704C409.897 143.699 410.32 144.663 410.824 145.584C411.264 146.384 411.784 147.312 411.36 148.104C411.172 148.397 410.898 148.624 410.576 148.756C410.254 148.887 409.899 148.917 409.56 148.84C408.882 148.674 408.246 148.366 407.696 147.936L408.968 151.216C407.489 151.424 405.983 151.284 404.568 150.808C403.616 154.648 402.512 159.544 401.456 162.136C399.76 162.088 398.168 161.656 397.104 162.568C395.656 163.8 394.96 166.184 392.624 165.216C391.44 164.72 390.408 162.176 390.04 160.944C387.583 152.738 386.92 144.1 388.096 135.616C386.495 133.795 384.562 132.296 382.4 131.2L382.576 131.368C378.344 129.768 373.544 128.168 369.44 130.096C366.24 131.568 364.32 134.784 361.904 137.296C359.789 139.646 357.207 141.528 354.322 142.82C351.437 144.112 348.313 144.787 345.152 144.8C344.432 149.4 344.776 155.272 344.448 159.568L340.64 152.52C340.366 152.018 340.118 151.503 339.896 150.976L339.816 150.816C339.481 149.969 339.099 149.141 338.672 148.336C336.272 150.336 332.928 147.104 334.832 144.64C335.207 144.151 335.655 143.722 336.16 143.368C335.618 143.862 334.958 144.209 334.244 144.374C333.529 144.54 332.784 144.518 332.08 144.312C331.385 144.079 330.785 143.624 330.375 143.017C329.964 142.41 329.765 141.684 329.808 140.952C329.877 140.459 330.075 139.992 330.381 139.599C330.687 139.206 331.091 138.9 331.552 138.712C329.652 138.814 327.764 138.349 326.128 137.376C325.032 136.8 324 135.728 324.4 134.4Z" fill="#000638"/>
<path d="M384 125.64C384.542 126.076 385.045 126.558 385.504 127.08C386.674 128.572 387.437 130.341 387.72 132.216C387.947 133.502 388.046 134.807 388.016 136.112C388.016 137.528 387.832 139.032 387.68 140.616C387.496 142.281 387.416 143.957 387.44 145.632C387.467 146.523 387.561 147.411 387.72 148.288C387.833 149.223 388.179 150.115 388.728 150.88C388.986 151.187 389.319 151.423 389.695 151.563C390.07 151.703 390.476 151.743 390.872 151.68C391.625 151.555 392.316 151.187 392.84 150.632C393.705 149.511 394.257 148.18 394.44 146.776H394.12C394.551 147.939 395.149 149.034 395.896 150.024C396.618 150.949 397.67 151.557 398.832 151.72C399.377 151.793 399.931 151.713 400.432 151.488C400.893 151.263 401.276 150.903 401.528 150.456C401.769 150.05 401.894 149.585 401.888 149.112C401.88 148.671 401.719 148.247 401.432 147.912L401.264 148.048C402.14 149.114 403.23 149.984 404.464 150.6C404.896 150.808 405.264 150.936 405.472 151.024C405.589 151.067 405.709 151.099 405.832 151.12C405.727 151.056 405.614 151.005 405.496 150.968C405.264 150.864 404.936 150.72 404.52 150.496C403.319 149.853 402.261 148.974 401.408 147.912L401.24 148.056C401.485 148.382 401.622 148.777 401.631 149.184C401.639 149.592 401.519 149.992 401.288 150.328C401.054 150.723 400.709 151.04 400.296 151.24C399.842 151.433 399.345 151.5 398.856 151.432C397.778 151.268 396.804 150.695 396.136 149.832C395.414 148.854 394.837 147.776 394.424 146.632L394.216 146.136L394.096 146.664C393.935 148.002 393.418 149.273 392.6 150.344C392.135 150.845 391.515 151.175 390.84 151.28C390.505 151.341 390.16 151.312 389.84 151.197C389.52 151.082 389.236 150.884 389.016 150.624C388.513 149.912 388.192 149.088 388.08 148.224C387.926 147.365 387.835 146.496 387.808 145.624C387.781 143.965 387.853 142.306 388.024 140.656C388.168 139.056 388.304 137.552 388.328 136.128C388.351 134.802 388.236 133.478 387.984 132.176C387.661 130.267 386.832 128.48 385.584 127C385.138 126.459 384.602 125.999 384 125.64Z" fill="#1C88C7"/>
<path d="M336.264 139.32C336.264 139.32 336.264 139.32 336.384 139.424L336.752 139.712C336.955 139.87 337.169 140.014 337.392 140.144C337.687 140.335 337.994 140.506 338.312 140.656C340.33 141.634 342.559 142.096 344.8 142C348.151 141.857 351.388 140.745 354.12 138.8C357.42 136.404 360.196 133.361 362.28 129.856C363.44 128.032 364.392 126.16 365.44 124.432C366.394 122.746 367.585 121.205 368.976 119.856C370.232 118.646 371.768 117.766 373.448 117.296C374.21 117.102 374.999 117.032 375.784 117.088C376.508 117.148 377.221 117.304 377.904 117.552C379.08 117.988 380.149 118.67 381.04 119.552C381.714 120.219 382.278 120.989 382.712 121.832C383.04 122.573 383.285 123.348 383.44 124.144C383.44 124.144 383.44 124.096 383.44 123.984C383.44 123.872 383.44 123.704 383.384 123.52C383.273 122.92 383.093 122.335 382.848 121.776C382.433 120.889 381.874 120.078 381.192 119.376C380.288 118.456 379.197 117.741 377.992 117.28C377.289 117.018 376.555 116.848 375.808 116.776C375.002 116.719 374.193 116.786 373.408 116.976C371.669 117.441 370.075 118.338 368.776 119.584C367.355 120.947 366.138 122.507 365.16 124.216C364.104 125.952 363.152 127.824 362 129.632C359.938 133.096 357.201 136.11 353.952 138.496C351.272 140.414 348.099 141.524 344.808 141.696C342.592 141.816 340.38 141.398 338.36 140.48C337.641 140.13 336.942 139.743 336.264 139.32Z" fill="#1C88C7"/>
<path d="M335.04 132.56C335.04 132.56 335.216 132.72 335.576 132.96C336.088 133.286 336.623 133.574 337.176 133.824C337.999 134.2 338.853 134.505 339.728 134.736C341.878 135.303 344.12 135.431 346.32 135.112C347.215 134.982 348.098 134.778 348.96 134.504C349.539 134.319 350.103 134.092 350.648 133.824C350.858 133.74 351.054 133.627 351.232 133.488C351.232 133.432 350.344 133.84 348.888 134.288C348.031 134.532 347.156 134.708 346.272 134.816C345.194 134.94 344.108 134.977 343.024 134.928C341.946 134.855 340.876 134.694 339.824 134.448C338.96 134.243 338.113 133.976 337.288 133.648C335.88 133.008 335.072 132.504 335.04 132.56Z" fill="#1C88C7"/>
<path d="M371.2 177.2C371.2 177.2 365.6 178.8 363.504 179.6L364.352 182C364.532 182.504 364.814 182.966 365.18 183.356C365.547 183.746 365.99 184.056 366.482 184.266C366.974 184.477 367.505 184.583 368.04 184.578C368.575 184.574 369.103 184.459 369.592 184.24C370.085 184.001 370.523 183.663 370.88 183.248C371.51 182.487 371.824 181.514 371.76 180.528C371.659 179.406 371.472 178.293 371.2 177.2Z" fill="#FF9D64"/>
<path d="M363.48 179.592C363.408 179.4 366.784 178.168 371.064 176.832L371.464 176.704L371.552 177.128C371.552 177.184 371.552 177.248 371.592 177.304C371.854 178.354 372.023 179.425 372.096 180.504C372.173 181.456 371.887 182.402 371.296 183.152C370.24 184.408 369.144 184.48 369.16 184.408C369.176 184.336 370.056 184 370.848 182.808C371.776 181.664 371.352 179.608 370.848 177.416C370.848 177.352 370.848 177.288 370.808 177.232L371.296 177.528C367.032 178.896 363.552 179.792 363.48 179.592Z" fill="#263238"/>
<path d="M325.456 380.192L434.048 379.688L428.056 287.32L427.608 259.784L421.208 209.88L396.944 204.672C396.944 204.672 390.872 215.872 375.344 215.6C360.184 215.376 360.672 208.928 360.672 208.928L334.888 218.608C334.888 218.608 320.76 225.488 318.168 232.152C315.64 238.648 310.752 275.984 310.752 275.984L332.984 275.712L331.008 346.4L325.456 380.192Z" fill="#000638"/>
<path d="M333.776 242.952C333.814 243.109 333.833 243.27 333.832 243.432C333.832 243.8 333.88 244.232 333.912 244.832C333.968 246.04 334.024 247.8 334.032 249.968C334.032 254.312 333.96 260.304 333.76 266.92C333.56 273.536 333.288 279.528 333.064 283.864C332.944 285.984 332.848 287.728 332.776 288.992C332.728 289.56 332.696 290.024 332.672 290.384C332.668 290.549 332.644 290.713 332.6 290.872C332.588 290.71 332.588 290.546 332.6 290.384C332.6 290.016 332.6 289.584 332.6 288.984L332.76 283.848C332.912 279.464 333.112 273.504 333.336 266.912C333.56 260.32 333.68 254.304 333.728 249.968C333.728 247.8 333.728 246.048 333.728 244.832C333.728 244.264 333.728 243.8 333.728 243.44C333.725 243.276 333.741 243.112 333.776 242.952Z" fill="#1C88C7"/>
<path d="M420.496 210.552C420.496 210.552 431.416 211.704 437.296 219.352C442.68 226.4 453.048 248.584 452.776 249.128C452.504 249.672 428.32 265.52 428.32 265.52L422.352 254.512L420.496 210.552Z" fill="#000638"/>
<path d="M425.816 221.448C425.859 221.585 425.881 221.728 425.88 221.872C425.88 222.192 425.936 222.592 425.976 223.08C426.064 224.128 426.152 225.656 426.24 227.536C426.424 231.296 426.568 236.504 426.656 242.248C426.744 247.992 426.832 253.192 426.944 256.96C427 258.792 427.04 260.304 427.072 261.416C427.072 261.904 427.072 262.304 427.072 262.624C427.093 262.765 427.093 262.907 427.072 263.048C427.039 262.912 427.02 262.772 427.016 262.632C427.016 262.312 426.952 261.912 426.912 261.424C426.832 260.368 426.744 258.848 426.648 256.968C426.464 253.208 426.32 248 426.24 242.256C426.16 236.512 426.056 231.312 425.944 227.544C425.896 225.712 425.848 224.2 425.816 223.088C425.816 222.6 425.816 222.2 425.816 221.88C425.794 221.737 425.794 221.591 425.816 221.448Z" fill="#1C88C7"/>
<path d="M274.624 317.6C274.624 317.6 278.224 320 280.48 319.712C282.736 319.424 290.136 317.6 290.136 317.6C290.136 317.6 290.288 318.256 292.248 319.736C294.208 321.216 306.12 323.176 311.096 322.576C316.072 321.976 324.52 318.808 324.52 318.808L321.984 304.544L299.584 308.08L274.632 313.824V317.6H274.624Z" fill="#824E44"/>
<path d="M282.144 305.976C282.144 305.976 280.184 314.576 281.24 315.784C282.296 316.992 283.64 317.288 284.376 315.632C285.224 313.152 285.939 310.628 286.52 308.072L287.424 305.976C287.424 305.976 286.216 320.152 288.624 320.912C291.032 321.672 292.4 320.912 292.4 320.912C292.4 320.912 297.2 324.528 297.528 318.8C297.872 314.486 298.557 310.206 299.576 306L300.696 304.136V307.336C300.696 307.336 298.152 314.872 299.576 315.928C301 316.984 302.504 317.744 303.408 316.536C304.312 315.328 308.52 306.496 309.448 303.4C309.448 303.4 312.272 307.48 316.216 307.536C319.312 307.576 321.112 306.248 319.848 304.336C318.584 302.424 315.472 300.792 315.472 300.792L311.4 291.28L301.448 288.952H290.136L282.144 305.976Z" fill="#FFCFB4"/>
<path d="M265.992 299.864C265.992 299.864 275.504 305.528 279.88 306.584C284.256 307.64 307.704 303.472 307.464 301.992C307.224 300.512 304.16 299.192 302.048 298.888C299.936 298.584 293.752 297.528 293.752 297.528H310.344L318.344 302.584C318.344 302.584 321.184 301.44 320.264 299.128C319.776 297.896 313.52 293.008 313.52 293.008L298.32 289.992L271.32 288.936L265.992 299.864Z" fill="#FFBF9D"/>
<path d="M274.904 274.456C274.904 274.456 301.896 278.984 302.504 279.736C303.112 280.488 310.04 288.328 310.04 288.328C310.04 288.328 320.44 291.912 319.096 294.216C317.752 296.52 314.72 295.12 314.72 295.12C314.72 295.12 318.944 301.752 316.984 303.12C315.024 304.488 312.912 303.568 311.384 301.608C309.856 299.648 305.504 292.408 305.504 292.408C305.504 292.408 309.12 307.192 307.312 307.648C305.504 308.104 302.64 308.248 301.432 304.448C300.782 302.526 300.277 300.558 299.92 298.56L294.192 289.064C294.192 289.064 296.456 306.416 295.096 307.84C295.096 307.84 291.624 308.968 290.424 305.952C289.224 302.936 287.552 296.04 287.552 296.04L284.688 288.456L284.392 293.256C284.392 293.256 286.792 302.152 285.296 302.752C283.8 303.352 281.824 302.752 280.768 300.72C279.64 298.689 278.731 296.543 278.056 294.32C277.76 293.144 276.16 289.128 276.16 289.128L270.424 288.376L274.904 274.456Z" fill="#C27461"/>
<path d="M308.144 286.024C309.443 287.516 310.638 289.096 311.72 290.752C312.917 292.326 314 293.983 314.96 295.712C313.659 294.224 312.464 292.647 311.384 290.992C310.186 289.416 309.103 287.756 308.144 286.024Z" fill="#7D4336"/>
<path d="M299.144 281.032C299.633 281.476 300.058 281.984 300.408 282.544C301.335 283.825 302.185 285.161 302.952 286.544C303.716 287.93 304.41 289.353 305.032 290.808C305.329 291.398 305.554 292.021 305.704 292.664C305.335 292.121 305.022 291.542 304.768 290.936C304.224 289.848 303.48 288.36 302.584 286.752C301.688 285.144 300.824 283.72 300.184 282.704C299.792 282.176 299.444 281.617 299.144 281.032Z" fill="#7D4336"/>
<path d="M291.2 281.832C291.2 281.792 291.648 282.024 292.152 282.592C292.8 283.338 293.287 284.209 293.584 285.152C293.885 286.077 294.083 287.032 294.176 288C294.248 288.399 294.248 288.809 294.176 289.208C294.009 288.841 293.901 288.449 293.856 288.048C293.683 287.112 293.453 286.188 293.168 285.28C292.877 284.386 292.451 283.541 291.904 282.776C291.496 282.192 291.2 281.888 291.2 281.832Z" fill="#7D4336"/>
<path d="M281.6 282.656C281.6 282.608 282.016 282.736 282.568 283.12C283.281 283.638 283.858 284.322 284.248 285.112C284.642 285.903 284.835 286.78 284.808 287.664C284.836 288.029 284.761 288.395 284.592 288.72C284.65 287.538 284.405 286.361 283.882 285.3C283.358 284.239 282.573 283.329 281.6 282.656Z" fill="#7D4336"/>
<path opacity="0.3" d="M331.712 322.032C333.632 322.032 406.968 316.648 406.968 316.648L432.8 311.304L426.4 282.664L331.864 313.064L331.712 322.032Z" fill="black"/>
<path d="M321.984 304.536L389.872 288.936C389.872 288.936 451.68 252.936 452.624 252.328C453.568 251.72 447.824 288.936 447.824 288.936C447.824 288.936 408.456 309.68 397.12 312.368C390.944 313.832 322.464 319.568 322.464 319.568L321.984 304.536Z" fill="#824E44"/>
<path d="M489.12 156.392C493.304 151.88 503.52 152.664 505.92 155.68C507.741 154.849 509.813 154.751 511.704 155.407C513.596 156.062 515.163 157.42 516.08 159.2L526.928 161.68C528.776 162.104 530.712 162.568 532.128 163.84C533.544 165.112 534.184 167.44 532.992 168.92C536.808 169.952 538.256 175.672 535.392 178.392C535.754 178.821 536.025 179.319 536.188 179.857C536.35 180.394 536.402 180.959 536.339 181.517C536.276 182.075 536.1 182.614 535.822 183.101C535.543 183.589 535.169 184.014 534.72 184.352C537.692 187.985 540.019 192.101 541.6 196.52C542.264 198.368 542.792 200.424 542.088 202.256C541.384 204.088 538.96 205.328 537.384 204.168C537.912 204.927 538.209 205.822 538.24 206.746C538.271 207.67 538.035 208.583 537.56 209.376C539.4 209.44 539.92 212.288 538.64 213.608C537.36 214.928 535.312 215.056 533.472 214.992C531.632 214.928 529.64 214.816 528.12 215.856C528.135 216.081 528.195 216.3 528.296 216.501C528.398 216.701 528.539 216.879 528.712 217.024C531.84 219.624 532.712 224.056 530.312 227.344C530.088 227.648 529.88 227.928 529.704 228.184C528.624 229.688 525.968 231.04 524.32 231.88C520.144 234.008 517.672 233.576 513.024 234.2C514.264 237.208 506.624 243.8 498.096 237.168C480.8 241.6 468.392 243.2 450.568 243.104C448.024 243.104 444.968 242.712 443.864 240.424C441.8 240.952 439.576 239.968 438.072 238.464C436.651 236.867 435.514 235.038 434.712 233.056C432.521 232.397 430.587 231.076 429.176 229.274C427.765 227.472 426.946 225.278 426.832 222.992C425.355 221.8 424.142 220.314 423.27 218.629C422.398 216.943 421.887 215.094 421.768 213.2C417.496 211.856 415.192 206.28 417.264 202.312C418.238 197.06 420.073 192.005 422.696 187.352C419.792 186.696 418.696 182.752 419.96 180.032C421.224 177.312 423.848 175.584 426.36 174.008C424.176 174.56 422.304 171.808 422.84 169.616C423.376 167.424 425.368 165.936 427.32 164.816C430.175 163.141 433.22 161.817 436.392 160.872C437.464 157.048 442.416 152.72 445.992 151.056C460.552 144.344 470.728 142.704 489.064 156.416" fill="#000638"/>
<path d="M448.488 183.624C449.744 173.656 457.136 161.784 467.04 163.464L497.688 173.264C499.139 173.511 500.445 174.293 501.349 175.456C502.252 176.618 502.687 178.077 502.568 179.544L497.368 246.192C497.041 250.401 495.27 254.369 492.354 257.423C489.439 260.477 485.558 262.43 481.368 262.952C478.762 263.273 476.118 263.031 473.614 262.242C471.11 261.452 468.805 260.134 466.855 258.377C464.905 256.619 463.355 254.463 462.31 252.054C461.265 249.646 460.75 247.041 460.8 244.416C460.888 239.832 460.936 236.416 460.936 236.416C460.936 236.416 448.28 233.504 446.672 216.656C445.84 208.272 447.096 194.696 448.488 183.624Z" fill="#824E44"/>
<path d="M454.088 197.168C454.048 197.725 454.227 198.275 454.588 198.701C454.948 199.127 455.461 199.395 456.016 199.448C456.287 199.486 456.563 199.47 456.827 199.4C457.092 199.33 457.34 199.208 457.557 199.041C457.774 198.874 457.955 198.666 458.09 198.428C458.225 198.19 458.312 197.928 458.344 197.656C458.38 197.1 458.2 196.551 457.84 196.124C457.481 195.698 456.971 195.427 456.416 195.368C456.145 195.33 455.868 195.347 455.603 195.417C455.338 195.487 455.09 195.61 454.873 195.778C454.656 195.945 454.475 196.155 454.34 196.393C454.205 196.632 454.12 196.896 454.088 197.168Z" fill="#263238"/>
<path d="M451 190.88C451.248 191.176 452.944 190.08 455.248 190.224C457.552 190.368 459.16 191.632 459.432 191.368C459.56 191.248 459.32 190.728 458.632 190.144C457.678 189.393 456.516 188.955 455.304 188.888C454.107 188.812 452.917 189.117 451.904 189.76C451.152 190.256 450.88 190.744 451 190.88Z" fill="#263238"/>
<path d="M475.2 198.048C475.16 198.605 475.339 199.157 475.699 199.584C476.059 200.011 476.572 200.281 477.128 200.336C477.399 200.374 477.675 200.358 477.939 200.288C478.204 200.218 478.452 200.096 478.669 199.929C478.885 199.762 479.067 199.554 479.202 199.316C479.337 199.078 479.424 198.816 479.456 198.544C479.496 197.987 479.317 197.435 478.957 197.008C478.597 196.581 478.084 196.311 477.528 196.256C477.257 196.218 476.981 196.234 476.717 196.304C476.452 196.374 476.204 196.496 475.987 196.663C475.771 196.83 475.589 197.038 475.454 197.276C475.319 197.514 475.232 197.776 475.2 198.048Z" fill="#263238"/>
<path d="M473.6 192.712C473.848 193.008 475.552 191.912 477.848 192.064C480.144 192.216 481.768 193.464 482.032 193.2C482.16 193.08 481.928 192.56 481.232 191.984C480.28 191.229 479.117 190.79 477.904 190.728C476.707 190.644 475.516 190.947 474.504 191.592C473.752 192.096 473.48 192.584 473.6 192.712Z" fill="#263238"/>
<path d="M464.184 209.272C464.184 209.136 462.792 208.8 460.488 208.36C459.904 208.264 459.36 208.112 459.28 207.704C459.27 207.093 459.446 206.493 459.784 205.984L461.8 201.616C464.608 195.4 466.68 190.264 466.432 190.152C466.184 190.04 463.696 195 460.888 201.216L458.944 205.616C458.53 206.302 458.371 207.112 458.496 207.904C458.566 208.118 458.685 208.312 458.843 208.472C459.002 208.631 459.195 208.752 459.408 208.824C459.728 208.937 460.062 209.004 460.4 209.024C462.72 209.296 464.168 209.4 464.184 209.272Z" fill="#263238"/>
<path d="M460.904 236.408C468.752 237.018 476.614 235.436 483.616 231.84C483.616 231.84 477.48 242.96 460.888 240.36L460.904 236.408Z" fill="#5B342F"/>
<path d="M473.176 183.2C473.36 183.84 475.68 183.688 478.36 184.176C481.04 184.664 483.16 185.544 483.576 184.976C483.752 184.712 483.408 184.104 482.56 183.44C481.431 182.625 480.131 182.078 478.759 181.839C477.386 181.601 475.978 181.678 474.64 182.064C473.6 182.4 473.096 182.872 473.176 183.2Z" fill="#263238"/>
<path d="M452.304 183.008C452.68 183.552 454.296 183.112 456.208 183.208C458.12 183.304 459.704 183.776 460.112 183.248C460.288 182.992 460.064 182.448 459.392 181.92C458.482 181.267 457.398 180.899 456.278 180.863C455.159 180.828 454.054 181.126 453.104 181.72C452.4 182.216 452.144 182.744 452.304 183.008Z" fill="#263238"/>
<path d="M440.848 191.512C440.96 188.868 441.984 186.344 443.744 184.368C444.744 183.336 446 182.568 446.888 181.44C448.808 179 448.608 175.568 449.456 172.584C450.022 170.659 451.039 168.898 452.424 167.447C453.809 165.995 455.52 164.896 457.416 164.24C460.568 163.176 464.112 163.384 467.08 161.84C469.272 160.72 470.96 158.752 473.216 157.768C477.608 155.848 482.624 158.176 486.696 160.696C487.496 163.976 485.336 166.768 483.296 169.448C482.264 170.786 480.955 171.884 479.458 172.667C477.96 173.45 476.311 173.9 474.624 173.984C472.016 174.096 468.976 173.448 467.112 175.28C465.248 177.112 465.84 180.664 464.208 182.88C461.888 186.08 456.752 184.744 453.328 186.664C450.688 188.152 449.528 191.264 448.16 193.976C446.792 196.688 444.472 199.488 441.44 199.296C440.943 196.733 440.745 194.121 440.848 191.512Z" fill="#000638"/>
<path d="M480.08 166.568C487.736 166.593 495.315 168.098 502.4 171C504.496 171.864 506.672 172.952 507.84 174.896C508.872 176.608 508.968 178.712 508.904 180.704C508.72 186.96 506.072 194.568 503.584 200.312L495.696 204.848C489.704 203.32 492.648 192.984 493.032 187.784C490.949 186.797 489.186 185.243 487.945 183.3C486.704 181.358 486.036 179.105 486.016 176.8C484.32 175.652 482.905 174.135 481.877 172.363C480.849 170.591 480.235 168.61 480.08 166.568Z" fill="#000638"/>
<path d="M495.816 202.608C496.112 199.032 500.52 198.416 503.56 200.312C505.232 201.352 506.464 203.376 506.184 207.168C505.384 217.288 495.424 214.44 495.424 214.152C495.424 213.864 495.464 206.792 495.816 202.608Z" fill="#824E44"/>
<path d="M498.808 210.544C498.856 210.544 498.976 210.688 499.264 210.84C499.464 210.947 499.682 211.013 499.907 211.035C500.132 211.057 500.36 211.034 500.576 210.968C501.672 210.656 502.704 209.024 502.888 207.208C502.979 206.343 502.876 205.468 502.584 204.648C502.512 204.326 502.363 204.026 502.15 203.774C501.937 203.522 501.666 203.325 501.36 203.2C501.161 203.133 500.944 203.137 500.747 203.211C500.55 203.286 500.385 203.426 500.28 203.608C500.128 203.88 500.176 204.088 500.12 204.104C500.064 204.12 499.912 203.912 500.024 203.504C500.104 203.258 500.261 203.045 500.472 202.896C500.767 202.711 501.122 202.645 501.464 202.712C501.874 202.827 502.248 203.045 502.55 203.344C502.852 203.644 503.073 204.015 503.192 204.424C503.558 205.332 503.695 206.315 503.592 207.288C503.376 209.32 502.184 211.152 500.688 211.464C500.409 211.524 500.12 211.52 499.843 211.452C499.566 211.384 499.308 211.254 499.088 211.072C498.808 210.792 498.768 210.56 498.808 210.544Z" fill="#5B342F"/>
<path d="M503.664 216.984C504.198 217.013 504.734 216.989 505.264 216.912C505.881 216.836 506.482 216.666 507.048 216.408L506.928 216.344C507.051 217.21 507.396 218.029 507.931 218.72C508.466 219.412 509.171 219.953 509.978 220.289C510.785 220.626 511.666 220.746 512.534 220.64C513.402 220.533 514.227 220.202 514.928 219.68H514.752C515.054 220.144 515.524 220.471 516.064 220.592C516.613 220.715 517.185 220.676 517.712 220.48C518.261 220.287 518.73 219.919 519.048 219.432C519.365 218.934 519.552 218.365 519.592 217.776C519.652 216.556 519.284 215.354 518.552 214.376C517.787 213.391 516.906 212.502 515.928 211.728V211.968C516.356 211.707 516.724 211.358 517.008 210.944C517.292 210.531 517.486 210.062 517.576 209.568C517.792 208.569 517.709 207.528 517.336 206.576C516.935 205.617 516.348 204.747 515.608 204.016C514.856 203.274 514.054 202.585 513.208 201.952V202.176C513.578 201.79 513.862 201.331 514.043 200.828C514.223 200.324 514.296 199.789 514.256 199.256C514.198 198.161 513.82 197.106 513.168 196.224C511.896 194.544 510.016 193.592 508.288 192.696L508.368 192.872C508.65 191.818 508.672 190.711 508.431 189.647C508.19 188.582 507.694 187.592 506.985 186.762C506.277 185.933 505.377 185.288 504.363 184.883C503.35 184.478 502.253 184.326 501.168 184.44L501.32 184.616C501.499 183.748 501.477 182.85 501.255 181.991C501.033 181.133 500.618 180.337 500.04 179.664C499.531 179.016 498.888 178.485 498.155 178.11C497.421 177.734 496.615 177.522 495.792 177.488L495.92 177.616C495.912 176.753 495.708 175.903 495.322 175.131C494.937 174.359 494.381 173.685 493.696 173.16C493.116 172.677 492.444 172.316 491.721 172.102C490.997 171.887 490.237 171.823 489.488 171.912L489.6 172.016C489.554 171.091 489.279 170.192 488.8 169.4C488.407 168.694 487.898 168.059 487.296 167.52C486.355 166.632 485.144 166.083 483.856 165.96H483.48C483.36 165.96 483.24 165.96 483.12 165.96C482.906 165.968 482.692 165.989 482.48 166.024C482.148 166.081 481.821 166.167 481.504 166.28L480.936 166.512L480.752 166.592L480.952 166.536L481.528 166.328C481.845 166.231 482.168 166.156 482.496 166.104C482.705 166.071 482.916 166.055 483.128 166.056H483.48L483.848 166.096C485.105 166.23 486.282 166.779 487.192 167.656C487.779 168.188 488.271 168.816 488.648 169.512C489.09 170.281 489.34 171.146 489.376 172.032V172.152H489.488C490.21 172.071 490.942 172.138 491.638 172.349C492.333 172.559 492.979 172.909 493.536 173.376C494.186 173.883 494.713 174.531 495.078 175.271C495.442 176.011 495.634 176.823 495.64 177.648V177.776H495.768C496.577 177.837 497.363 178.067 498.077 178.452C498.791 178.837 499.415 179.367 499.91 180.009C500.405 180.652 500.76 181.391 500.95 182.179C501.141 182.967 501.163 183.787 501.016 184.584L500.968 184.784H501.168C502.206 184.662 503.258 184.796 504.233 185.175C505.207 185.553 506.074 186.165 506.757 186.955C507.441 187.746 507.92 188.692 508.153 189.711C508.387 190.73 508.367 191.791 508.096 192.8V192.92L508.2 192.976C509.928 193.872 511.76 194.816 513 196.424C513.622 197.251 513.981 198.246 514.032 199.28C514.068 199.77 514.002 200.263 513.837 200.726C513.671 201.189 513.411 201.612 513.072 201.968L512.944 202.088L513.08 202.192C514.68 203.488 516.352 204.856 517.08 206.696C517.428 207.593 517.506 208.572 517.304 209.512C517.22 209.961 517.042 210.387 516.783 210.763C516.524 211.139 516.189 211.457 515.8 211.696L515.624 211.8L515.776 211.936C516.742 212.686 517.61 213.554 518.36 214.52C519.062 215.435 519.419 216.568 519.368 217.72C519.362 218.258 519.196 218.781 518.893 219.226C518.59 219.67 518.162 220.014 517.664 220.216C517.207 220.417 516.696 220.458 516.213 220.333C515.73 220.209 515.302 219.925 515 219.528L514.928 219.416L514.824 219.488C514.092 220.021 513.227 220.34 512.325 220.411C511.422 220.481 510.518 220.3 509.712 219.888C509.043 219.527 508.466 219.018 508.025 218.4C507.584 217.781 507.291 217.07 507.168 216.32V216.2L507.064 216.256C506.517 216.511 505.934 216.68 505.336 216.76C504.807 216.846 504.271 216.878 503.736 216.856C502.887 216.855 502.048 216.678 501.272 216.336C500.784 216.142 500.377 215.786 500.12 215.328C499.96 215.008 499.936 214.816 499.92 214.824V214.96C499.947 215.094 499.993 215.223 500.056 215.344C500.302 215.826 500.71 216.206 501.208 216.416" fill="#1C88C7"/>
<path d="M538.624 204.648C538.777 204.461 538.909 204.257 539.016 204.04C539.437 203.233 539.64 202.331 539.605 201.421C539.57 200.512 539.298 199.628 538.816 198.856C538.411 198.225 537.879 197.686 537.253 197.273C536.628 196.859 535.923 196.581 535.184 196.456L535.272 196.576C535.648 194.866 535.362 193.076 534.472 191.568C533.986 190.722 533.323 189.99 532.528 189.424C531.655 188.888 530.734 188.435 529.776 188.072C529.305 187.866 528.863 187.597 528.464 187.272C528.074 186.922 527.766 186.49 527.56 186.008C527.128 185.032 527.008 183.88 526.456 182.808C525.872 181.724 524.978 180.84 523.887 180.27C522.796 179.699 521.559 179.469 520.336 179.608L520.512 179.784C520.708 178.559 520.62 177.306 520.255 176.121C519.891 174.936 519.259 173.85 518.409 172.946C517.559 172.043 516.514 171.347 515.353 170.911C514.192 170.475 512.946 170.311 511.712 170.432L511.88 170.6C512.047 169.251 511.826 167.883 511.241 166.656C510.657 165.43 509.734 164.396 508.581 163.676C507.429 162.956 506.094 162.581 504.736 162.595C503.377 162.608 502.05 163.01 500.912 163.752H501.072C500.082 162.768 498.889 162.012 497.576 161.536C496.412 161.081 495.194 160.778 493.952 160.632C491.947 160.377 489.913 160.48 487.944 160.936C486.678 161.214 485.465 161.695 484.352 162.36C484.057 162.532 483.776 162.727 483.512 162.944C483.419 163.01 483.331 163.082 483.248 163.16C483.248 163.16 483.624 162.88 484.392 162.424C485.511 161.795 486.72 161.342 487.976 161.08C489.931 160.653 491.945 160.572 493.928 160.84C495.148 160.996 496.344 161.302 497.488 161.752C498.74 162.256 499.869 163.023 500.8 164L500.872 164.08L500.968 164.024C502.062 163.315 503.336 162.933 504.64 162.923C505.944 162.913 507.224 163.275 508.329 163.968C509.434 164.66 510.318 165.654 510.878 166.831C511.437 168.009 511.649 169.322 511.488 170.616V170.808H511.68C512.87 170.689 514.07 170.845 515.19 171.263C516.31 171.681 517.319 172.351 518.14 173.22C518.96 174.089 519.571 175.135 519.924 176.277C520.277 177.419 520.363 178.627 520.176 179.808V180.008H520.384C521.542 179.874 522.713 180.088 523.749 180.623C524.784 181.157 525.638 181.987 526.2 183.008C526.72 183.992 526.848 185.136 527.304 186.168C527.528 186.688 527.864 187.152 528.288 187.528C528.706 187.859 529.17 188.128 529.664 188.328C530.609 188.684 531.52 189.126 532.384 189.648C533.153 190.189 533.794 190.89 534.264 191.704C535.147 193.156 535.447 194.888 535.104 196.552V196.656H535.208C535.923 196.772 536.605 197.035 537.212 197.429C537.82 197.823 538.339 198.339 538.736 198.944C539.333 199.861 539.614 200.948 539.536 202.04C539.495 202.726 539.321 203.397 539.024 204.016C538.76 204.44 538.616 204.64 538.624 204.648Z" fill="#1C88C7"/>
<path d="M441.712 205.752C441.776 205.63 441.813 205.495 441.823 205.358C441.833 205.22 441.814 205.082 441.768 204.952C441.65 204.624 441.449 204.332 441.184 204.104C440.82 203.805 440.398 203.584 439.944 203.456C439.38 203.305 438.841 203.073 438.344 202.768C437.808 202.351 437.418 201.773 437.232 201.12C437.015 200.367 436.942 199.58 437.016 198.8C437.064 198 437.216 197.08 437.232 196.136C437.28 194.216 436.504 192.248 436.04 190.128C435.797 189.032 435.77 187.899 435.96 186.792C436.055 186.215 436.273 185.665 436.598 185.179C436.924 184.693 437.35 184.283 437.848 183.976C438.986 183.45 440.184 183.066 441.416 182.832C442.067 182.669 442.686 182.399 443.248 182.032C443.815 181.619 444.266 181.068 444.56 180.432C445.074 179.141 445.452 177.801 445.688 176.432C445.837 175.762 446.085 175.117 446.424 174.52C446.773 173.938 447.305 173.488 447.936 173.24C448.853 173.006 449.797 172.893 450.744 172.904C451.237 172.875 451.722 172.761 452.176 172.568C452.629 172.363 453.021 172.043 453.312 171.64C453.8 170.841 454.172 169.976 454.416 169.072C454.685 168.233 455.13 167.461 455.72 166.808C456.281 166.181 456.966 165.676 457.731 165.326C458.497 164.977 459.327 164.789 460.168 164.776C461.743 164.752 463.269 165.323 464.44 166.376L464.576 166.496L464.656 166.336C465.25 165.101 466.101 164.007 467.152 163.128C468.204 162.249 469.431 161.605 470.752 161.24C471.857 160.945 473.009 160.866 474.144 161.008C475.108 161.103 476.046 161.374 476.912 161.808C478.132 162.427 479.144 163.389 479.824 164.576C480.012 164.883 480.175 165.204 480.312 165.536L480.432 165.784V165.872C480.432 165.872 480.432 165.872 480.432 165.784L480.336 165.52C480.216 165.178 480.063 164.849 479.88 164.536C479.213 163.313 478.2 162.314 476.968 161.664C476.089 161.21 475.135 160.917 474.152 160.8C472.992 160.641 471.813 160.712 470.68 161.008C469.324 161.375 468.063 162.027 466.98 162.921C465.897 163.815 465.017 164.93 464.4 166.192H464.608C463.39 165.082 461.8 164.471 460.152 164.48C459.271 164.492 458.402 164.686 457.6 165.049C456.797 165.413 456.078 165.938 455.488 166.592C454.861 167.283 454.392 168.102 454.112 168.992C453.874 169.866 453.516 170.704 453.048 171.48C452.769 171.834 452.412 172.119 452.006 172.314C451.6 172.51 451.155 172.61 450.704 172.608C449.731 172.605 448.76 172.723 447.816 172.96C447.12 173.238 446.533 173.735 446.144 174.376C445.775 174.994 445.505 175.666 445.344 176.368C445.11 177.706 444.74 179.017 444.24 180.28C443.968 180.867 443.549 181.374 443.024 181.752C442.493 182.112 441.907 182.382 441.288 182.552C440.032 182.788 438.812 183.184 437.656 183.728C437.104 184.047 436.64 184.498 436.304 185.04C435.987 185.562 435.765 186.136 435.648 186.736C435.45 187.878 435.483 189.047 435.744 190.176C436.224 192.336 437 194.264 436.96 196.136C436.96 197.056 436.816 197.944 436.776 198.792C436.699 199.601 436.783 200.416 437.024 201.192C437.222 201.878 437.641 202.48 438.216 202.904C438.712 203.209 439.252 203.439 439.816 203.584C440.258 203.703 440.672 203.909 441.032 204.192C441.29 204.404 441.488 204.68 441.608 204.992C441.722 205.228 441.759 205.494 441.712 205.752Z" fill="#1C88C7"/>
<path d="M422.32 189.736C422.32 189.736 422.36 189.672 422.424 189.544L422.712 188.984L423.8 186.8C424.272 185.864 424.808 184.68 425.56 183.392C426.355 181.9 427.552 180.661 429.016 179.816C429.816 179.384 430.792 179.104 431.752 178.696C432.251 178.491 432.722 178.222 433.152 177.896C433.604 177.553 433.966 177.105 434.208 176.592C434.704 175.552 434.736 174.36 435.136 173.28C435.324 172.734 435.672 172.257 436.136 171.912C436.64 171.582 437.193 171.336 437.776 171.184C438.398 171.022 439.003 170.803 439.584 170.528C440.188 170.216 440.68 169.724 440.992 169.12C441.616 167.896 441.648 166.512 441.92 165.208C442.027 164.551 442.267 163.922 442.624 163.36C443.006 162.824 443.579 162.455 444.224 162.328C445.568 162.072 446.992 162.56 448.472 162.328C449.217 162.211 449.906 161.861 450.44 161.328C450.94 160.811 451.373 160.233 451.728 159.608C452.104 159.016 452.456 158.416 452.872 157.88C453.265 157.345 453.784 156.916 454.384 156.632C455.6 156.096 456.968 156.424 458.208 156.728C459.444 157.138 460.754 157.274 462.048 157.128C463.252 156.846 464.395 156.35 465.424 155.664C466.371 155.032 467.379 154.496 468.432 154.064C470.385 153.443 472.478 153.412 474.448 153.976C476.079 154.434 477.586 155.254 478.856 156.376C479.804 157.23 480.613 158.226 481.256 159.328C481.659 160.027 481.999 160.761 482.272 161.52L482.496 162.112C482.519 162.181 482.548 162.248 482.584 162.312C482.572 162.241 482.554 162.171 482.528 162.104C482.48 161.952 482.416 161.752 482.328 161.496C482.078 160.722 481.754 159.975 481.36 159.264C480.723 158.139 479.913 157.122 478.96 156.248C477.676 155.101 476.146 154.264 474.488 153.8C472.474 153.211 470.331 153.23 468.328 153.856C467.258 154.286 466.235 154.822 465.272 155.456C464.268 156.118 463.155 156.597 461.984 156.872C460.73 157.007 459.461 156.87 458.264 156.472C457.619 156.293 456.961 156.164 456.296 156.088C455.595 155.996 454.882 156.096 454.234 156.378C453.586 156.66 453.027 157.113 452.616 157.688C452.198 158.251 451.811 158.836 451.456 159.44C451.107 160.042 450.688 160.601 450.208 161.104C449.721 161.589 449.094 161.908 448.416 162.016C447.024 162.224 445.608 161.728 444.152 162.016C443.438 162.171 442.81 162.595 442.4 163.2C442.023 163.797 441.767 164.463 441.648 165.16C441.376 166.504 441.336 167.864 440.752 169C440.47 169.553 440.023 170.003 439.472 170.288C438.91 170.558 438.324 170.772 437.72 170.928C437.106 171.096 436.524 171.366 436 171.728C435.494 172.105 435.114 172.626 434.912 173.224C434.496 174.368 434.464 175.544 434 176.528C433.505 177.457 432.676 178.163 431.68 178.504C430.744 178.912 429.784 179.2 428.936 179.648C427.446 180.52 426.234 181.796 425.44 183.328C424.688 184.64 424.168 185.824 423.712 186.776C423.256 187.728 422.912 188.456 422.68 188.976C422.576 189.224 422.488 189.408 422.424 189.552C422.383 189.609 422.348 189.671 422.32 189.736Z" fill="#1C88C7"/>
<path d="M433.28 179.32C433.222 179.296 433.159 179.282 433.096 179.28C432.908 179.272 432.721 179.311 432.552 179.392C432.246 179.579 431.99 179.839 431.809 180.149C431.627 180.459 431.525 180.809 431.512 181.168C431.505 181.681 431.57 182.193 431.704 182.688C431.866 183.26 431.944 183.853 431.936 184.448C431.853 185.121 431.597 185.76 431.192 186.304C430.792 186.912 430.28 187.496 429.864 188.216C429.622 188.589 429.47 189.012 429.419 189.453C429.367 189.895 429.418 190.342 429.568 190.76C429.872 191.632 430.488 192.36 430.784 193.248C431.032 194.184 430.915 195.179 430.456 196.032C430.048 196.944 429.464 197.832 429.064 198.856C428.846 199.376 428.726 199.932 428.712 200.496C428.708 201.075 428.828 201.648 429.064 202.176C429.603 203.205 430.233 204.185 430.944 205.104C431.67 206.007 432.032 207.148 431.96 208.304C431.665 209.481 431.233 210.62 430.672 211.696C430.429 212.286 430.291 212.914 430.264 213.552C430.273 214.189 430.426 214.815 430.712 215.384C431.308 216.432 432.025 217.407 432.848 218.288C433.614 219.125 434.199 220.111 434.568 221.184C434.827 222.272 435.158 223.341 435.56 224.384C435.798 224.887 436.142 225.331 436.568 225.688C436.999 226.004 437.481 226.244 437.992 226.4C438.467 226.546 438.932 226.722 439.384 226.928C439.81 227.133 440.201 227.403 440.544 227.728C441.171 228.386 441.709 229.123 442.144 229.92C442.592 230.68 443.016 231.432 443.488 232.104C444.33 233.342 445.551 234.274 446.968 234.76C448.027 235.131 449.156 235.26 450.272 235.136C450.975 235.059 451.661 234.87 452.304 234.576C452.525 234.474 452.739 234.356 452.944 234.224C452.107 234.652 451.199 234.923 450.264 235.024C449.18 235.121 448.088 234.979 447.064 234.608C445.69 234.12 444.509 233.203 443.696 231.992C443.24 231.328 442.832 230.576 442.376 229.808C441.932 228.985 441.377 228.226 440.728 227.552C440.366 227.206 439.956 226.912 439.512 226.68C439.049 226.47 438.573 226.289 438.088 226.136C437.606 225.989 437.154 225.759 436.752 225.456C436.358 225.13 436.041 224.72 435.824 224.256C435.432 223.233 435.109 222.186 434.856 221.12C434.479 220.009 433.877 218.988 433.088 218.12C432.283 217.254 431.579 216.298 430.992 215.272C430.73 214.745 430.59 214.165 430.584 213.576C430.602 212.976 430.732 212.384 430.968 211.832C431.54 210.734 431.978 209.571 432.272 208.368C432.351 207.743 432.274 207.108 432.048 206.52C431.83 205.955 431.546 205.418 431.2 204.92C430.499 204.021 429.878 203.063 429.344 202.056C429.118 201.553 429.004 201.007 429.008 200.456C429.016 199.925 429.127 199.4 429.336 198.912C429.72 197.928 430.296 197.04 430.712 196.088C431.198 195.177 431.312 194.114 431.032 193.12C430.704 192.176 430.088 191.448 429.8 190.632C429.659 190.247 429.608 189.834 429.653 189.426C429.697 189.018 429.835 188.626 430.056 188.28C430.456 187.584 430.96 186.984 431.36 186.368C431.779 185.791 432.04 185.116 432.12 184.408C432.121 183.798 432.032 183.192 431.856 182.608C431.716 182.127 431.643 181.629 431.64 181.128C431.647 180.784 431.737 180.448 431.903 180.147C432.069 179.845 432.305 179.589 432.592 179.4C432.808 179.305 433.048 179.277 433.28 179.32Z" fill="#1C88C7"/>
<path d="M538.4 204.312C538.668 204.32 538.936 204.299 539.2 204.248C539.971 204.108 540.704 203.809 541.352 203.368C542.401 202.672 543.174 201.63 543.536 200.424C543.775 199.619 543.833 198.771 543.706 197.941C543.579 197.112 543.269 196.32 542.8 195.624C542.207 194.854 541.539 194.144 540.808 193.504C540.02 192.852 539.389 192.032 538.96 191.104C538.633 190.047 538.71 188.907 539.176 187.904C539.584 186.824 540.192 185.776 540.584 184.584C541.017 183.268 541.171 181.877 541.034 180.498C540.898 179.12 540.475 177.785 539.793 176.58C539.11 175.375 538.183 174.325 537.071 173.499C535.959 172.674 534.687 172.089 533.336 171.784L533.424 172.016C533.901 171.369 534.216 170.618 534.344 169.824C534.461 169.024 534.423 168.209 534.232 167.424C534.048 166.623 533.717 165.864 533.256 165.184C532.793 164.496 532.226 163.883 531.576 163.368C529.62 161.928 527.354 160.964 524.96 160.552C522.722 160.087 520.429 159.947 518.152 160.136L518.312 160.28C518.29 158.969 517.91 157.689 517.213 156.578C516.517 155.467 515.53 154.567 514.36 153.976C513.26 153.432 512.042 153.173 510.816 153.224C509.668 153.327 508.542 153.596 507.472 154.024C506.954 154.197 506.416 154.307 505.872 154.352C505.358 154.388 504.842 154.325 504.352 154.168C503.416 153.824 502.525 153.37 501.696 152.816C500.906 152.301 500.054 151.89 499.16 151.592C498.33 151.338 497.468 151.209 496.6 151.208C495.123 151.188 493.667 151.555 492.376 152.272C491.418 152.808 490.569 153.519 489.872 154.368C489.437 154.896 489.068 155.477 488.776 156.096C488.671 156.305 488.583 156.521 488.512 156.744C488.512 156.744 488.608 156.528 488.824 156.112C489.131 155.51 489.507 154.947 489.944 154.432C490.646 153.606 491.495 152.917 492.448 152.4C493.722 151.711 495.152 151.364 496.6 151.392C497.447 151.403 498.288 151.538 499.096 151.792C499.973 152.086 500.807 152.495 501.576 153.008C502.421 153.574 503.328 154.041 504.28 154.4C504.797 154.563 505.339 154.63 505.88 154.6C506.425 154.553 506.962 154.44 507.48 154.264C508.526 153.841 509.628 153.572 510.752 153.464C511.932 153.419 513.104 153.672 514.16 154.2C515.283 154.768 516.23 155.633 516.897 156.7C517.564 157.768 517.926 158.997 517.944 160.256V160.416H518.104C520.353 160.237 522.616 160.38 524.824 160.84C527.17 161.25 529.39 162.194 531.312 163.6C531.929 164.098 532.469 164.686 532.912 165.344C533.351 165.996 533.668 166.723 533.848 167.488C534.03 168.24 534.065 169.019 533.952 169.784C533.833 170.53 533.54 171.237 533.096 171.848L532.952 172.032L533.184 172.088C534.495 172.384 535.729 172.95 536.809 173.75C537.888 174.55 538.789 175.566 539.454 176.733C540.118 177.901 540.532 179.194 540.669 180.531C540.806 181.868 540.662 183.218 540.248 184.496C539.872 185.656 539.264 186.704 538.848 187.808C538.365 188.872 538.294 190.078 538.648 191.192C539.09 192.168 539.75 193.03 540.576 193.712C541.299 194.336 541.958 195.03 542.544 195.784C543.01 196.451 543.323 197.213 543.461 198.015C543.599 198.817 543.559 199.639 543.344 200.424C543.001 201.607 542.257 202.634 541.24 203.328C540.609 203.769 539.897 204.079 539.144 204.24C538.656 204.296 538.4 204.296 538.4 204.312Z" fill="#1C88C7"/>
<path d="M429.832 172.288C429.84 172.224 429.84 172.16 429.832 172.096C429.832 171.952 429.832 171.768 429.896 171.528C429.96 171.008 430.04 170.28 430.144 169.344C430.248 168.408 430.408 167.24 430.696 165.92C430.994 164.421 431.469 162.963 432.112 161.576C432.885 159.894 434.012 158.399 435.416 157.192C436.206 156.539 437.094 156.015 438.048 155.64C439.084 155.295 440.139 155.012 441.208 154.792C442.351 154.543 443.436 154.082 444.408 153.432C445.385 152.703 446.267 151.854 447.032 150.904C447.832 149.976 448.632 148.984 449.488 148.096C450.372 147.183 451.416 146.44 452.568 145.904C454.919 144.918 457.451 144.433 460 144.48C462.354 144.445 464.707 144.584 467.04 144.896C470.988 145.396 474.826 146.545 478.4 148.296C480.809 149.492 483.013 151.064 484.928 152.952C485.264 153.296 485.568 153.584 485.816 153.856L486.416 154.568L486.784 155C486.872 155.096 486.92 155.144 486.92 155.136C486.89 155.078 486.852 155.024 486.808 154.976L486.464 154.528C486.296 154.328 486.104 154.08 485.88 153.8C485.656 153.52 485.344 153.216 485.016 152.864C483.118 150.92 480.916 149.299 478.496 148.064C474.901 146.264 471.028 145.085 467.04 144.576C464.694 144.251 462.328 144.104 459.96 144.136C457.396 144.1 454.853 144.593 452.488 145.584C451.293 146.135 450.209 146.9 449.288 147.84C448.384 148.752 447.616 149.744 446.824 150.672C446.076 151.601 445.213 152.432 444.256 153.144C443.311 153.783 442.252 154.234 441.136 154.472C440.053 154.697 438.984 154.989 437.936 155.344C436.96 155.729 436.052 156.269 435.248 156.944C433.826 158.181 432.685 159.709 431.904 161.424C431.268 162.833 430.804 164.313 430.52 165.832C430.292 166.972 430.124 168.123 430.016 169.28C429.92 170.224 429.864 170.968 429.832 171.472C429.832 171.704 429.832 171.896 429.792 172.04L429.832 172.288Z" fill="#263238"/>
<path d="M474.096 214.592C474.053 213.91 473.825 213.252 473.438 212.688C473.05 212.125 472.518 211.677 471.896 211.392C471.265 211.126 470.568 211.06 469.898 211.203C469.229 211.346 468.619 211.691 468.152 212.192C467.737 212.692 467.494 213.312 467.461 213.961C467.428 214.61 467.606 215.253 467.968 215.792C468.312 216.349 468.813 216.792 469.408 217.064C470.181 217.399 471.038 217.491 471.864 217.328C472.552 217.233 473.181 216.889 473.632 216.36C473.99 215.844 474.154 215.218 474.096 214.592Z" fill="#5B342F"/>
<path d="M472.8 209.672C472.424 209.672 472.624 212.208 470.608 214.192C468.592 216.176 465.864 216.112 465.88 216.472C465.88 216.632 466.52 216.912 467.664 216.848C469.148 216.74 470.549 216.117 471.624 215.088C472.654 214.096 473.257 212.741 473.304 211.312C473.32 210.24 472.984 209.64 472.8 209.672Z" fill="#263238"/>
<path d="M517.064 251.72L497.408 244.264C497.408 244.264 482.208 253.264 470.568 251.4C461.512 249.952 460.768 245.296 460.768 245.296L449.88 247.056C449.88 247.056 433.376 260.8 429.936 274.704C427.896 282.936 427.408 293.72 427.408 303.176C427.408 306.96 432.208 321.928 432.208 321.928L434.08 343.584L424.968 379.688H520.072V279.808L517.064 251.72Z" fill="#F89729"/>
<path d="M410.648 311.304L396.84 276.728L436.464 249.12L449.88 247.056L446.392 295.992L410.648 311.304Z" fill="#F89729"/>
<path d="M431.336 317.872C431.238 317.72 431.155 317.559 431.088 317.392C430.944 317.064 430.696 316.592 430.456 315.976C429.736 314.213 429.145 312.4 428.688 310.552C427.248 304.428 426.837 298.107 427.472 291.848C428.124 285.611 429.274 279.437 430.912 273.384C431.52 271.064 432.032 269.184 432.4 267.896L432.84 266.408C432.882 266.232 432.941 266.061 433.016 265.896C433.007 266.078 432.974 266.258 432.92 266.432C432.824 266.816 432.704 267.32 432.56 267.936C432.224 269.288 431.76 271.136 431.2 273.456C429.649 279.5 428.542 285.65 427.888 291.856C427.256 298.074 427.624 304.354 428.976 310.456C429.394 312.296 429.929 314.108 430.576 315.88C430.792 316.512 431.008 316.992 431.128 317.32C431.219 317.495 431.289 317.68 431.336 317.872Z" fill="#263238"/>
<g opacity="0.3">
<path opacity="0.3" d="M426.816 298.744L427.68 298.12C427.627 287.394 429.358 276.734 432.8 266.576C426.4 276.104 423.664 288.096 426.816 298.744Z" fill="black"/>
</g>
<path opacity="0.3" d="M454.08 293.968C454.08 293.968 467.68 344.456 475.32 353.712C482.96 362.968 487.072 365.712 498.792 366.664C510.512 367.616 514.864 354.04 517.472 348.752C520.08 343.464 519.6 335.528 519.6 335.528L503.6 326.6L490.96 347.4L458.4 293.064L454.08 293.968Z" fill="black"/>
<path d="M456.216 300.544C456.216 300.544 470.104 332.856 480.064 351.384C488.496 367.08 505.664 365.336 511.16 356.608C516.656 347.88 525.752 321.752 525.752 321.752L496.736 316.656L493.536 325.848L471.536 297.792L456.216 300.544Z" fill="#824E44"/>
<path d="M479.952 295.88L477.816 286.216C477.816 286.216 476.84 283.544 475.248 285.904C473.656 288.264 474.4 292.712 474.4 292.712C474.4 292.712 471.392 269.728 468.752 267.224C467.784 266.304 466.464 267.568 466.464 267.568C466.464 267.568 466.152 263.072 464.744 263.096C463.336 263.12 462.008 266.48 462.008 266.48C461.486 266.214 460.887 266.139 460.315 266.269C459.743 266.399 459.236 266.726 458.88 267.192C457.648 268.688 457.64 281.184 457.64 281.184C457.64 281.184 456.464 270.888 454.624 270.24C451.664 269.2 451.664 273.12 451.664 273.12L452.528 286.52C452.528 286.52 454.128 295.664 456.168 301.416C458.208 307.168 459.368 307.224 459.368 307.224L472.608 306.872C472.608 306.872 475.6 304.144 477.952 302.024C478.8 301.269 479.433 300.303 479.784 299.223C480.136 298.143 480.194 296.989 479.952 295.88Z" fill="#824E44"/>
<path d="M502.4 338.88C502.311 338.752 502.236 338.616 502.176 338.472C502.024 338.168 501.84 337.776 501.608 337.296L500.576 335.504C500.16 334.824 499.64 334.056 499.096 333.208C496.8 329.848 493.336 325.424 489.4 320.632C485.464 315.84 481.808 311.544 479.256 308.376C477.976 306.776 476.968 305.488 476.288 304.568L475.536 303.496C475.439 303.377 475.358 303.245 475.296 303.104C475.408 303.209 475.509 303.324 475.6 303.448L476.4 304.472C477.112 305.352 478.152 306.624 479.464 308.184C482.072 311.304 485.744 315.568 489.696 320.368C493.648 325.168 497.072 329.632 499.296 333.04C499.832 333.912 500.336 334.688 500.744 335.392C501.152 336.096 501.464 336.712 501.712 337.224C501.96 337.736 502.08 338.12 502.216 338.448C502.295 338.584 502.357 338.729 502.4 338.88Z" fill="#5B342F"/>
<path d="M513.8 250.856C513.8 250.856 529.64 254.096 533.6 272C537.264 288.488 536.128 323.56 536.128 323.56L493.024 316L503.52 256.12L513.8 250.856Z" fill="#F89729"/>
<path d="M499.144 279.464C499.151 279.528 499.151 279.592 499.144 279.656C499.144 279.808 499.096 279.984 499.072 280.208C498.992 280.728 498.888 281.432 498.752 282.328C498.456 284.208 498.032 286.864 497.512 290.136C496.416 296.76 494.912 305.88 493.232 316.024L493.064 315.784L494.48 316.04L521.248 320.84L529.352 322.4L531.552 322.832L532.12 322.952L532.312 323.008C532.246 323.02 532.178 323.02 532.112 323.008L531.536 322.92L529.32 322.568L521.192 321.184L494.4 316.448L492.984 316.2L492.784 316.16V315.96C494.512 305.824 496.056 296.704 497.184 290.088C497.76 286.824 498.224 284.176 498.56 282.304C498.72 281.416 498.856 280.704 498.952 280.192C498.952 279.976 499.032 279.792 499.064 279.648C499.081 279.583 499.108 279.521 499.144 279.464Z" fill="#263238"/>
<path d="M501.6 273.712C501.68 273.359 501.789 273.014 501.928 272.68C502.168 272.032 502.528 271.08 503.016 269.952C504.208 266.917 505.967 264.137 508.2 261.76C509.477 260.485 510.969 259.445 512.608 258.688C513.938 258.069 515.341 257.62 516.784 257.352C517.749 257.166 518.729 257.064 519.712 257.048C520.073 257.022 520.436 257.041 520.792 257.104C519.466 257.213 518.147 257.391 516.84 257.64C513.692 258.287 510.795 259.819 508.488 262.056C506.3 264.398 504.54 267.106 503.288 270.056L502.08 272.728C501.957 273.073 501.796 273.403 501.6 273.712Z" fill="#263238"/>
<path d="M461.76 283.2C461.618 282.392 461.546 281.573 461.544 280.752C461.464 279.24 461.376 277.152 461.368 274.832C461.343 272.853 461.423 270.874 461.608 268.904C461.642 268.091 461.776 267.284 462.008 266.504C462.013 267.321 461.976 268.139 461.896 268.952C461.816 270.456 461.776 272.544 461.784 274.856C461.792 277.168 461.784 279.128 461.832 280.768C461.876 281.579 461.852 282.393 461.76 283.2Z" fill="#5B342F"/>
<path d="M466.136 267.72C466.238 268.382 466.281 269.051 466.264 269.72C466.264 270.952 466.352 272.656 466.448 274.52C466.544 276.384 466.664 278.096 466.76 279.32C466.847 279.983 466.874 280.652 466.84 281.32C466.64 280.681 466.513 280.02 466.464 279.352C466.296 278.12 466.128 276.424 466.032 274.552C465.936 272.68 465.928 270.952 465.968 269.712C465.949 269.044 466.006 268.376 466.136 267.72Z" fill="#5B342F"/>
<path d="M168.408 175.048C167.344 167.928 165.576 160.144 160.88 154.688C157.718 150.88 153.947 147.623 149.72 145.048C144.968 142.176 140.776 141.232 135.68 140.688L132.336 143.656C143.032 146.24 152.336 153.672 157.8 163.216C163.264 172.76 165 184.28 163.2 195.144C162.04 202.248 159.456 209.04 157.488 215.944C155.52 222.848 154.168 230.2 155.536 237.272C161.408 234.992 159.752 238.872 162.232 233.056C164.712 227.24 166 214.496 167.44 208.352C169.816 198.256 169.88 184.8 168.408 175.048Z" fill="#EF4D3B"/>
<path d="M162.648 159.2C153.64 145.192 132.6 140.872 132.6 140.872C101.8 138.672 96.296 162.336 93.184 183.896C91.256 197.288 98.4 239.2 98.4 239.2L105.944 241.928H155.544C155.544 241.024 159.056 233.44 159.92 230.968C164.4 208.504 167.952 167.432 162.648 159.2Z" fill="#000638"/>
<path d="M136.984 148.896L135.056 147.056L114.256 155.448C112.807 155.527 111.44 156.146 110.424 157.182C109.409 158.219 108.818 159.598 108.768 161.048L108.952 228.896C108.952 233.496 109.84 237.48 112.624 241.144L115.544 245.008C122.216 253.808 135.936 253.088 141.208 243.408C141.533 242.86 141.783 242.271 141.952 241.656C142.08 241.155 142.182 240.648 142.256 240.136C142.88 234.68 142.912 229.944 142.912 229.944C143.288 223.952 143.408 221.496 143.408 221.552C143.408 221.608 156.16 220.088 159.608 203.712C161.328 195.568 161 184.368 160.52 173.312C159.832 158.096 149.248 148.88 136.984 148.896Z" fill="#FFBF9D"/>
<path d="M133.216 183.528C133.193 184.08 132.955 184.602 132.553 184.982C132.151 185.361 131.617 185.569 131.064 185.56C130.794 185.567 130.526 185.521 130.274 185.423C130.023 185.325 129.793 185.178 129.599 184.99C129.406 184.802 129.251 184.578 129.146 184.329C129.04 184.081 128.985 183.814 128.984 183.544C129.007 182.992 129.243 182.471 129.643 182.09C130.043 181.71 130.576 181.499 131.128 181.504C131.399 181.498 131.668 181.545 131.92 181.644C132.172 181.742 132.402 181.89 132.596 182.079C132.79 182.267 132.945 182.492 133.052 182.741C133.158 182.99 133.214 183.257 133.216 183.528Z" fill="#263238"/>
<path d="M154.192 184.24C154.169 184.791 153.932 185.312 153.532 185.691C153.132 186.07 152.599 186.279 152.048 186.272C151.778 186.279 151.509 186.233 151.257 186.135C151.005 186.037 150.775 185.89 150.58 185.703C150.386 185.515 150.231 185.29 150.124 185.042C150.018 184.793 149.962 184.526 149.96 184.256C149.983 183.704 150.219 183.183 150.619 182.802C151.019 182.422 151.552 182.211 152.104 182.216C152.375 182.21 152.644 182.257 152.896 182.356C153.148 182.454 153.378 182.602 153.572 182.791C153.766 182.979 153.921 183.204 154.028 183.453C154.134 183.702 154.19 183.969 154.192 184.24Z" fill="#263238"/>
<path d="M158.32 177.712C158.04 177.976 156.496 176.712 154.216 176.6C151.936 176.488 150.216 177.552 149.984 177.256C149.864 177.128 150.16 176.64 150.912 176.152C151.931 175.517 153.121 175.212 154.32 175.28C155.506 175.336 156.643 175.767 157.568 176.512C158.24 177.088 158.456 177.6 158.32 177.712Z" fill="#263238"/>
<path d="M135.2 177.952C134.896 178.184 133.488 176.76 131.2 176.424C128.912 176.088 127.12 176.952 126.92 176.64C126.816 176.496 127.16 176.048 127.96 175.632C129.039 175.104 130.255 174.925 131.44 175.12C132.614 175.298 133.701 175.844 134.544 176.68C135.2 177.312 135.352 177.848 135.2 177.952Z" fill="#263238"/>
<path d="M143.2 194.528C143.2 194.4 144.624 194.224 146.936 194.048C147.52 194.048 148.072 193.928 148.192 193.536C148.272 192.937 148.165 192.329 147.888 191.792C147.419 190.357 146.92 188.853 146.392 187.28C144.32 180.88 142.848 175.584 143.112 175.504C143.376 175.424 145.264 180.56 147.336 186.984C147.832 188.584 148.307 190.096 148.76 191.52C149.09 192.243 149.155 193.058 148.944 193.824C148.849 194.024 148.709 194.201 148.536 194.339C148.363 194.478 148.16 194.575 147.944 194.624C147.619 194.697 147.285 194.727 146.952 194.712C144.6 194.72 143.2 194.656 143.2 194.528Z" fill="#263238"/>
<path d="M143.384 221.6C135.61 221.312 128.069 218.872 121.6 214.552C121.6 214.552 126.584 226.256 143.2 225.544L143.384 221.6Z" fill="#FF9A6C"/>
<path d="M141.92 200C141.515 199.433 140.972 198.978 140.342 198.68C139.711 198.382 139.016 198.25 138.32 198.296C137.815 198.315 137.32 198.437 136.864 198.653C136.407 198.868 135.999 199.174 135.664 199.552C135.343 199.917 135.141 200.371 135.083 200.854C135.026 201.337 135.117 201.826 135.344 202.256C135.69 202.684 136.156 202.998 136.682 203.159C137.208 203.32 137.77 203.321 138.296 203.16C139.392 202.831 140.412 202.287 141.296 201.56C141.561 201.392 141.792 201.175 141.976 200.92C142.062 200.797 142.111 200.652 142.118 200.502C142.125 200.352 142.09 200.203 142.016 200.072" fill="#FF9A6C"/>
<path d="M136.376 195.768C136.752 195.768 136.632 198.24 138.664 200.096C140.696 201.952 143.336 201.816 143.336 202.168C143.336 202.32 142.728 202.616 141.608 202.592C140.159 202.535 138.776 201.968 137.704 200.992C136.673 200.056 136.042 198.758 135.944 197.368C135.904 196.344 136.208 195.744 136.376 195.768Z" fill="#263238"/>
<path d="M137.384 169.072C137.072 169.648 134.864 169.016 132.168 168.928C129.472 168.84 127.224 169.232 126.96 168.632C126.84 168.344 127.304 167.832 128.256 167.36C129.519 166.812 130.891 166.558 132.267 166.616C133.642 166.674 134.987 167.043 136.2 167.696C137.112 168.24 137.528 168.8 137.384 169.072Z" fill="#263238"/>
<path d="M157.992 167.928C157.56 168.424 156.024 167.808 154.136 167.688C152.248 167.568 150.632 167.864 150.296 167.304C150.144 167.032 150.424 166.504 151.144 166.072C152.112 165.534 153.217 165.294 154.32 165.384C155.424 165.474 156.476 165.888 157.344 166.576C157.984 167.144 158.176 167.688 157.992 167.928Z" fill="#263238"/>
<path d="M109.16 190.032C109.16 190.032 120.824 193.664 127.424 164.872C129.68 155.032 138.808 147.056 138.808 147.056L135.104 145.944C135.104 145.944 112.104 152.424 111.712 152.712C111.32 153 105.912 164.608 105.912 164.608L109.16 190.032Z" fill="#000638"/>
<path d="M112 188.96C112.056 187.728 110.784 184.76 109.6 184.512C106.4 183.848 100.528 183.808 100.064 192.04C99.424 203.288 110.848 201.64 110.888 201.288C110.928 200.936 111.832 193.208 112 188.96Z" fill="#FFBF9D"/>
<path d="M107.704 196.8C107.656 196.8 107.496 196.928 107.16 197.056C106.684 197.227 106.16 197.21 105.696 197.008C104.528 196.504 103.64 194.56 103.696 192.528C103.72 191.561 103.964 190.612 104.408 189.752C104.532 189.408 104.739 189.099 105.009 188.852C105.279 188.606 105.606 188.428 105.96 188.336C106.189 188.287 106.427 188.32 106.633 188.43C106.84 188.54 107.001 188.719 107.088 188.936C107.224 189.256 107.136 189.48 107.2 189.504C107.264 189.528 107.448 189.328 107.384 188.856C107.336 188.575 107.195 188.319 106.984 188.128C106.685 187.878 106.301 187.751 105.912 187.776C105.448 187.84 105.009 188.02 104.634 188.3C104.259 188.58 103.961 188.95 103.768 189.376C103.234 190.323 102.94 191.386 102.912 192.472C102.856 194.744 103.896 196.928 105.496 197.496C105.793 197.6 106.11 197.636 106.423 197.602C106.736 197.567 107.037 197.462 107.304 197.296C107.664 197.104 107.744 196.856 107.704 196.8Z" fill="#FF9A6C"/>
<path d="M117.072 184.528C117.072 184.528 117.688 184.528 118.752 184.184C120.247 183.731 121.616 182.936 122.752 181.864C123.54 181.131 124.241 180.31 124.84 179.416C125.513 178.377 126.083 177.276 126.544 176.128C127.505 173.45 128.306 170.717 128.944 167.944C129.665 165.179 130.528 162.453 131.528 159.776C132.347 157.59 133.326 155.467 134.456 153.424C135.226 152.051 136.086 150.73 137.032 149.472C137.368 149.024 137.656 148.672 137.832 148.472C137.922 148.353 138.024 148.243 138.136 148.144C138.058 148.272 137.973 148.395 137.88 148.512C137.712 148.752 137.44 149.08 137.08 149.536C136.171 150.818 135.34 152.154 134.592 153.536C133.494 155.582 132.54 157.702 131.736 159.88C130.816 162.344 129.968 165.104 129.184 168.032C128.534 170.816 127.714 173.557 126.728 176.24C126.256 177.402 125.669 178.515 124.976 179.56C124.359 180.464 123.637 181.291 122.824 182.024C121.654 183.105 120.241 183.887 118.704 184.304C118.172 184.451 117.624 184.526 117.072 184.528Z" fill="#263238"/>
<path d="M99.656 231.44C99.8321 230.138 99.915 228.826 99.904 227.512C99.8566 223.916 99.4925 220.332 98.816 216.8L97.504 209.504C96.9971 206.716 96.6605 203.9 96.496 201.072C96.2984 197.951 96.5272 194.819 97.176 191.76C97.5437 190.153 98.08 188.59 98.776 187.096C99.496 185.556 100.39 184.104 101.44 182.768C103.568 180.17 105.939 177.78 108.52 175.632C110.984 173.504 113.32 171.408 115.448 169.232C119.187 165.448 122.572 161.329 125.56 156.928C127.581 153.968 129.412 150.881 131.04 147.688C131.616 146.56 132.048 145.672 132.32 145.064C132.448 144.771 132.552 144.539 132.632 144.368C132.677 144.294 132.709 144.213 132.728 144.128L132.6 144.36L132.264 145.032C131.968 145.632 131.528 146.512 130.936 147.632C126.781 155.521 121.478 162.749 115.2 169.08C113.104 171.216 110.752 173.296 108.28 175.432C105.678 177.597 103.29 180.008 101.152 182.632C100.09 183.986 99.1854 185.457 98.456 187.016C97.7612 188.535 97.225 190.122 96.856 191.752C96.2065 194.838 95.9804 197.997 96.184 201.144C96.3577 203.981 96.705 206.805 97.224 209.6C97.712 212.224 98.16 214.664 98.576 216.896C99.2735 220.405 99.6696 223.967 99.76 227.544C99.76 228.808 99.76 229.792 99.688 230.456C99.688 230.776 99.688 231.032 99.64 231.256C99.592 231.48 99.656 231.44 99.656 231.44Z" fill="#455A64"/>
<path d="M96.04 232.496C96.2161 231.194 96.299 229.882 96.288 228.568C96.2421 224.98 95.878 221.403 95.2 217.88C94.8 215.648 94.4 213.208 93.896 210.584C93.3846 207.797 93.048 204.981 92.888 202.152C92.6864 199.034 92.9152 195.903 93.568 192.848C93.9342 191.238 94.4706 189.672 95.168 188.176C95.8916 186.638 96.7852 185.187 97.832 183.848C99.9607 181.25 102.334 178.863 104.92 176.72C107.384 174.584 109.72 172.488 111.84 170.32C115.579 166.534 118.966 162.416 121.96 158.016C123.968 155.062 125.788 151.984 127.408 148.8C127.984 147.672 128.408 146.784 128.68 146.176C128.816 145.88 128.92 145.656 128.992 145.48C129.032 145.402 129.066 145.322 129.096 145.24C129.047 145.314 129.005 145.392 128.968 145.472C128.88 145.632 128.768 145.864 128.624 146.152C128.336 146.752 127.888 147.624 127.296 148.744C123.154 156.614 117.867 163.826 111.608 170.144C109.512 172.28 107.152 174.36 104.688 176.496C102.08 178.655 99.6924 181.066 97.56 183.696C96.4966 185.048 95.5895 186.516 94.856 188.072C94.1574 189.59 93.6211 191.177 93.256 192.808C92.6026 195.893 92.3764 199.053 92.584 202.2C92.7576 205.037 93.105 207.861 93.624 210.656C94.104 213.28 94.56 215.72 94.968 217.952C95.6633 221.462 96.062 225.024 96.16 228.6C96.16 229.864 96.16 230.848 96.088 231.512L96.04 232.272C96.0305 232.346 96.0305 232.422 96.04 232.496Z" fill="#455A64"/>
<path d="M79.768 379.592C79.768 379.592 78.72 370.224 84.712 354.584C89.616 341.784 95.376 334.688 95.376 334.688L172.976 329.576L178.96 379.592H79.768Z" fill="#263238"/>
<path d="M172.064 300.488C173.2 283.216 172.064 257.032 172.064 257.032L159.264 235.536L142.4 232.888C142.4 232.888 142.352 244.696 133.528 246.648C118.432 249.984 108.592 231.832 108.592 231.832C107.168 231.832 85.696 236.344 78.888 242.824C71.896 249.48 60.32 267.128 57.056 272.192C57.056 272.192 34.4 305.216 31.104 314.272C30.2026 316.578 29.8337 319.058 30.0249 321.526C30.2161 323.995 30.9623 326.388 32.208 328.528C32.896 330.568 53.808 360.584 70.024 372.576L71.288 370.176L79.696 355.776L57.92 320L83.2 293.36L88.1679 288.696L89.5919 294.976L95.72 324.512C95.72 324.512 83.512 348.92 81.8 361.608C81.8 361.608 141.8 382.296 178.864 372.08C178.848 372.08 170.92 317.768 172.064 300.488Z" fill="#EBEBEB"/>
<path d="M108.936 349.288C108.936 349.288 98.776 346.544 97.736 347.12C96.696 347.696 89.128 351.696 89.128 351.696C88.024 353.068 86.8294 354.364 85.552 355.576C85.552 355.576 82.944 358.048 81.152 358.128C80.1895 358.199 79.2221 358.096 78.296 357.824L71.272 370.184C71.272 370.184 75.44 374.184 77.672 374.112C79.904 374.04 92.072 368.928 92.072 368.928L95.032 368.288C95.032 368.288 106.136 369.888 107.032 366.552L107.2 365.6L96.288 363.464L92.136 363.704L99.488 361.808C99.488 361.808 109.888 362.312 110.872 362.144C111.856 361.976 113.096 360.592 112.776 359.744L110.632 359.24C110.632 359.24 113.152 357.864 113.232 356.36L103.632 353.76C103.632 353.76 109.8 351.44 108.936 349.288Z" fill="#FFBF9D"/>
<path d="M111.76 359.2C111.456 359.164 111.158 359.092 110.872 358.984C110.312 358.816 109.504 358.592 108.472 358.328C106.448 357.808 103.672 357.144 100.536 356.456C100.164 356.361 99.7877 356.287 99.408 356.232C99.0513 356.206 98.6928 356.233 98.344 356.312C97.648 356.504 96.944 356.744 96.296 356.96C95 357.4 93.84 357.848 92.888 358.256C91.936 358.664 91.184 359.056 90.68 359.336C90.427 359.504 90.1592 359.649 89.88 359.768C90.0842 359.539 90.3215 359.342 90.584 359.184C91.278 358.73 92.0024 358.323 92.752 357.968C93.8631 357.443 95.0006 356.976 96.16 356.568C96.824 356.328 97.488 356.088 98.24 355.88C98.635 355.784 99.0428 355.752 99.448 355.784C99.872 355.784 100.248 355.936 100.64 356.008C103.752 356.704 106.552 357.416 108.552 358.024C109.56 358.328 110.36 358.6 110.904 358.824C111.206 358.907 111.495 359.033 111.76 359.2Z" fill="#FF9A6C"/>
<path d="M103.84 354.224C103.8 354.288 103.04 353.864 101.792 353.472C100.131 352.949 98.3732 352.809 96.6507 353.064C94.9282 353.319 93.286 353.962 91.848 354.944C90.736 355.688 90.16 356.304 90.104 356.248C90.5204 355.609 91.0653 355.064 91.704 354.648C93.1459 353.558 94.8387 352.848 96.6267 352.584C98.4148 352.32 100.241 352.51 101.936 353.136C102.636 353.37 103.283 353.739 103.84 354.224Z" fill="#FF9A6C"/>
<path d="M224.2 276.968L184.6 247.488L169.816 237.752L158.888 235.536L163.528 281.704H173.792L217.944 300.896L272.032 305.488L272.824 288.72L224.2 276.968Z" fill="#EBEBEB"/>
<path d="M172.8 320.728C172.762 320.5 172.741 320.271 172.736 320.04C172.736 319.552 172.688 318.904 172.656 318.08C172.592 316.368 172.52 313.896 172.464 310.88C172.408 307.864 172.368 304.184 172.36 300.152C172.352 296.12 172.36 291.672 172.36 287.016C172.36 277.696 170.592 269.416 169.2 263.456C168.504 260.488 167.896 258.096 167.488 256.44C167.288 255.64 167.136 255 167.016 254.528C166.955 254.308 166.912 254.083 166.888 253.856C166.976 254.066 167.048 254.283 167.104 254.504C167.232 254.976 167.416 255.6 167.64 256.392C168.096 258.04 168.752 260.392 169.488 263.392C171.531 271.103 172.635 279.032 172.776 287.008C172.848 291.672 172.776 296.112 172.776 300.152C172.776 304.192 172.776 307.824 172.776 310.872C172.776 313.92 172.776 316.36 172.832 318.072C172.832 318.872 172.832 319.552 172.832 320.04C172.842 320.27 172.831 320.5 172.8 320.728Z" fill="#263238"/>
<g opacity="0.3">
<path opacity="0.3" d="M172.528 282.576C174.123 276.578 174.178 270.274 172.687 264.249C171.197 258.225 168.208 252.674 164 248.112C168.494 258.893 171.393 270.271 172.608 281.888" fill="black"/>
</g>
<path d="M139.88 141.224C115.08 143.448 114.112 173.76 110.816 197.672C106.104 231.832 131.096 239.168 131.096 239.168L100.048 233.344C100.048 233.344 83.064 226.472 83.184 207.616C83.304 188.76 86.272 165.68 106.04 148.144C123.112 132.992 138.32 140.192 139.88 141.224Z" fill="#EF4D3B"/>
<path d="M164 231.832C162.128 230.136 162.856 229.488 157.496 229C151.44 228.44 144.696 232.312 138.656 233.12C132.616 233.928 126.192 233.12 121.136 229.744C115.2 225.792 112 218.976 109.04 212.496L94.48 224.496C93.0709 225.632 91.943 227.077 91.184 228.72C90.425 230.363 90.0554 232.159 90.104 233.968C90.0803 234.587 90.2008 235.203 90.456 235.768C91.304 237.048 97.552 234.024 98.808 234.904C105.48 239.568 108.32 246.976 114.432 252.36C121.576 258.64 128.184 263.632 133.216 263.456C138.248 263.28 147.536 257.96 150.864 251.784C153.944 246.08 156.632 241.92 159.056 237.568C160.328 235.264 164.768 238.496 165.304 235.768C165.441 235.055 165.393 234.319 165.165 233.63C164.937 232.941 164.536 232.322 164 231.832Z" fill="#EF4D3B"/>
<path d="M83.2 267.448C83.2772 267.631 83.3361 267.821 83.376 268.016L83.8159 269.664C84.1839 271.144 84.696 273.208 85.3199 275.736C86.5599 280.88 88.2319 287.992 89.9999 295.864C91.7679 303.736 93.2959 310.88 94.3119 316.072C94.8159 318.672 95.1919 320.776 95.4239 322.24C95.5253 322.939 95.6053 323.499 95.6639 323.92C95.7056 324.114 95.7244 324.313 95.7199 324.512C95.6566 324.325 95.6111 324.132 95.5839 323.936C95.5039 323.512 95.3999 322.96 95.2639 322.264C94.9599 320.768 94.5439 318.688 94.0239 316.128C92.9359 310.96 91.3599 303.824 89.5999 295.952C87.8399 288.08 86.2079 281 85.0319 275.808C84.464 273.264 83.9919 271.184 83.656 269.696C83.512 269.008 83.392 268.456 83.296 268.032C83.2473 267.84 83.2152 267.645 83.2 267.448Z" fill="#263238"/>
<path d="M164 234.968C163.951 235.009 163.898 235.044 163.84 235.072L163.344 235.36C162.71 235.739 162.055 236.083 161.384 236.392C158.916 237.538 156.326 238.402 153.664 238.968C149.719 239.817 145.699 240.275 141.664 240.336C137.112 240.472 132.12 240.24 126.896 239.896C124.28 239.728 121.72 239.472 119.272 239.096C116.824 238.72 114.472 238.208 112.288 237.648C108.382 236.64 104.585 235.249 100.952 233.496C98.5038 232.317 96.1548 230.941 93.9279 229.384C93.1279 228.856 92.5599 228.368 92.1519 228.072L91.7039 227.712C91.5999 227.632 91.5519 227.584 91.5599 227.576L91.7279 227.68L92.2079 228C92.6239 228.28 93.2079 228.744 94.0239 229.248C96.2723 230.756 98.631 232.093 101.08 233.248C104.714 234.946 108.498 236.301 112.384 237.296C114.576 237.84 116.904 238.32 119.336 238.704C121.768 239.088 124.312 239.328 126.92 239.504C132.144 239.848 137.12 240.088 141.648 239.976C145.664 239.926 149.666 239.492 153.6 238.68C156.248 238.145 158.831 237.327 161.304 236.24C162.2 235.888 162.832 235.496 163.296 235.288L163.808 235.04C163.867 235.005 163.932 234.981 164 234.968Z" fill="#263238"/>
<path d="M116.44 238.216L116.288 238.12L115.848 237.8L114.176 236.552C113.456 236 112.576 235.28 111.608 234.472C111.112 234.064 110.608 233.592 110.056 233.112C109.504 232.632 108.944 232.112 108.368 231.512C105.603 228.897 103.183 225.94 101.168 222.712C98.7029 218.714 97.3088 214.149 97.1199 209.456C97.0696 204.785 97.7085 200.132 99.0159 195.648C100.112 191.504 101.304 187.84 102.272 184.744C103.24 181.648 103.992 179.192 104.544 177.432C104.792 176.592 104.992 175.92 105.144 175.432C105.208 175.224 105.264 175.056 105.312 174.92C105.326 174.858 105.35 174.798 105.384 174.744C105.384 174.744 105.384 174.808 105.384 174.928L105.256 175.456L104.728 177.472C104.248 179.216 103.52 181.736 102.584 184.832C101.648 187.928 100.488 191.608 99.3839 195.744C98.1174 200.195 97.495 204.805 97.5359 209.432C97.732 214.064 99.1089 218.57 101.536 222.52C103.533 225.734 105.919 228.69 108.64 231.32C109.208 231.896 109.768 232.424 110.312 232.92C110.856 233.416 111.344 233.888 111.832 234.304C112.816 235.104 113.64 235.864 114.352 236.432L115.952 237.744L116.368 238.096C116.4 238.168 116.448 238.208 116.44 238.216Z" fill="#263238"/>
<path d="M139.88 141.224C139.88 141.312 138.592 141.376 136.6 141.952C135.436 142.295 134.302 142.731 133.208 143.256C131.879 143.92 130.599 144.677 129.376 145.52C127.17 147.091 125.109 148.855 123.216 150.792C121.76 152.28 120.904 153.248 120.816 153.192C120.963 152.925 121.14 152.675 121.344 152.448C121.704 151.992 122.256 151.344 122.944 150.576C124.788 148.557 126.842 146.742 129.072 145.16C130.314 144.303 131.622 143.546 132.984 142.896C134.099 142.373 135.262 141.958 136.456 141.656C136.913 141.528 137.378 141.429 137.848 141.36C138.199 141.288 138.554 141.246 138.912 141.232C139.233 141.193 139.558 141.19 139.88 141.224Z" fill="#263238"/>
<g opacity="0.3">
<path opacity="0.3" d="M108.184 167.128C108.387 166.376 108.545 165.612 108.656 164.84C108.682 164.542 108.6 164.245 108.425 164.003C108.25 163.761 107.994 163.589 107.704 163.519C107.413 163.45 107.107 163.486 106.842 163.623C106.576 163.76 106.368 163.987 106.256 164.264C104.613 168.605 102.976 172.947 101.344 177.288C98.144 185.872 94.824 194.672 94.656 203.84C94.488 213.008 97.416 223.216 105.168 228.12L102.912 224.12C97.064 216.12 96.904 205.176 99.136 195.504C101.368 185.832 105.704 176.744 108.184 167.128Z" fill="black"/>
</g>
<path d="M164.472 237.168C164.432 237.168 164.664 236.8 164.84 236.104C165.059 235.114 164.967 234.08 164.576 233.144C163.988 231.762 162.891 230.659 161.512 230.064C159.82 229.324 157.962 229.048 156.128 229.264C154.277 229.457 152.441 229.772 150.632 230.208C148.952 230.592 147.432 231.008 146.208 231.384C144.984 231.76 143.968 232.096 143.272 232.328C142.921 232.466 142.56 232.578 142.192 232.664C142.514 232.464 142.858 232.3 143.216 232.176C143.896 231.896 144.88 231.52 146.12 231.104C147.36 230.688 148.856 230.24 150.544 229.832C152.368 229.367 154.224 229.039 156.096 228.848C158.007 228.63 159.942 228.931 161.696 229.72C163.155 230.37 164.303 231.564 164.896 233.048C165.278 234.04 165.325 235.13 165.032 236.152C164.952 236.432 164.836 236.701 164.688 236.952C164.628 237.035 164.555 237.108 164.472 237.168Z" fill="#263238"/>
<g opacity="0.3">
<path opacity="0.3" d="M156.224 238.624C146.689 242.861 136.174 244.402 125.824 243.08C115.536 241.744 106.96 238.76 98.88 232.256C98.88 232.256 111.768 239.696 131.776 239.856C148.376 240 156.224 238.624 156.224 238.624Z" fill="black"/>
</g>
</svg>
