<svg width="24" height="24" viewBox="0 0 24 24" fill="none" xmlns="http://www.w3.org/2000/svg">
<path d="M12 0C15.2604 0 15.6672 0.0119999 16.9464 0.0719999C18.2244 0.132 19.0944 0.3324 19.86 0.63C20.652 0.9348 21.3192 1.3476 21.9864 2.0136C22.5966 2.61348 23.0687 3.33911 23.37 4.14C23.6664 4.9044 23.868 5.7756 23.928 7.0536C23.9844 8.3328 24 8.7396 24 12C24 15.2604 23.988 15.6672 23.928 16.9464C23.868 18.2244 23.6664 19.0944 23.37 19.86C23.0696 20.6613 22.5973 21.3871 21.9864 21.9864C21.3864 22.5964 20.6608 23.0685 19.86 23.37C19.0956 23.6664 18.2244 23.868 16.9464 23.928C15.6672 23.9844 15.2604 24 12 24C8.7396 24 8.3328 23.988 7.0536 23.928C5.7756 23.868 4.9056 23.6664 4.14 23.37C3.33879 23.0694 2.61303 22.5971 2.0136 21.9864C1.40329 21.3866 0.931118 20.661 0.63 19.86C0.3324 19.0956 0.132 18.2244 0.0719999 16.9464C0.0155999 15.6672 0 15.2604 0 12C0 8.7396 0.0119999 8.3328 0.0719999 7.0536C0.132 5.7744 0.3324 4.9056 0.63 4.14C0.930283 3.33862 1.40256 2.61279 2.0136 2.0136C2.61321 1.40308 3.33891 0.930875 4.14 0.63C4.9056 0.3324 5.7744 0.132 7.0536 0.0719999C8.3328 0.0155999 8.7396 0 12 0ZM12 6C10.4087 6 8.88258 6.63214 7.75736 7.75736C6.63214 8.88258 6 10.4087 6 12C6 13.5913 6.63214 15.1174 7.75736 16.2426C8.88258 17.3679 10.4087 18 12 18C13.5913 18 15.1174 17.3679 16.2426 16.2426C17.3679 15.1174 18 13.5913 18 12C18 10.4087 17.3679 8.88258 16.2426 7.75736C15.1174 6.63214 13.5913 6 12 6V6ZM19.8 5.7C19.8 5.30218 19.642 4.92064 19.3607 4.63934C19.0794 4.35804 18.6978 4.2 18.3 4.2C17.9022 4.2 17.5206 4.35804 17.2393 4.63934C16.958 4.92064 16.8 5.30218 16.8 5.7C16.8 6.09782 16.958 6.47936 17.2393 6.76066C17.5206 7.04197 17.9022 7.2 18.3 7.2C18.6978 7.2 19.0794 7.04197 19.3607 6.76066C19.642 6.47936 19.8 6.09782 19.8 5.7ZM12 8.4C12.9548 8.4 13.8705 8.77928 14.5456 9.45442C15.2207 10.1295 15.6 11.0452 15.6 12C15.6 12.9548 15.2207 13.8705 14.5456 14.5456C13.8705 15.2207 12.9548 15.6 12 15.6C11.0452 15.6 10.1295 15.2207 9.45442 14.5456C8.77928 13.8705 8.4 12.9548 8.4 12C8.4 11.0452 8.77928 10.1295 9.45442 9.45442C10.1295 8.77928 11.0452 8.4 12 8.4V8.4Z" fill="white"/>
</svg>
