<svg width="19" height="19" viewBox="0 0 19 19" fill="none" xmlns="http://www.w3.org/2000/svg">
<path d="M18.6979 5.65106C18.6874 4.86212 18.5397 4.08103 18.2615 3.34272C18.0202 2.71997 17.6516 2.15439 17.1793 1.68213C16.7071 1.20987 16.1415 0.841319 15.5188 0.600016C14.7899 0.32643 14.02 0.178497 13.2417 0.162516C12.2396 0.117725 11.9219 0.105225 9.37813 0.105225C6.83437 0.105225 6.50833 0.105225 5.51354 0.162516C4.73558 0.178614 3.96599 0.326546 3.2375 0.600016C2.61464 0.841151 2.04898 1.20965 1.5767 1.68193C1.10442 2.1542 0.735926 2.71987 0.494792 3.34272C0.220657 4.07099 0.073045 4.84076 0.0583333 5.61877C0.0135417 6.62189 0 6.9396 0 9.48335C0 12.0271 -7.76102e-09 12.3521 0.0583333 13.3479C0.0739583 14.1271 0.220833 14.8958 0.494792 15.6261C0.736331 16.2487 1.1051 16.8142 1.57754 17.2862C2.04997 17.7583 2.61569 18.1267 3.23854 18.3677C3.96503 18.6523 4.73476 18.8108 5.51458 18.8365C6.51771 18.8813 6.83542 18.8948 9.37917 18.8948C11.9229 18.8948 12.249 18.8948 13.2438 18.8365C14.022 18.8211 14.792 18.6736 15.5208 18.4C16.1434 18.1584 16.7089 17.7898 17.1811 17.3176C17.6533 16.8453 18.022 16.2799 18.2635 15.6573C18.5375 14.9281 18.6844 14.1594 18.7 13.3792C18.7448 12.3771 18.7583 12.0594 18.7583 9.5146C18.7562 6.97085 18.7563 6.64793 18.6979 5.65106ZM9.37188 14.2938C6.71146 14.2938 4.55625 12.1386 4.55625 9.47814C4.55625 6.81772 6.71146 4.66252 9.37188 4.66252C10.6491 4.66252 11.8739 5.16988 12.777 6.07298C13.6801 6.97609 14.1875 8.20096 14.1875 9.47814C14.1875 10.7553 13.6801 11.9802 12.777 12.8833C11.8739 13.7864 10.6491 14.2938 9.37188 14.2938ZM14.3792 5.60731C14.2317 5.60744 14.0856 5.57849 13.9493 5.52211C13.813 5.46573 13.6891 5.38302 13.5848 5.27872C13.4805 5.17442 13.3978 5.05058 13.3414 4.91427C13.2851 4.77797 13.2561 4.63189 13.2562 4.48439C13.2562 4.337 13.2853 4.19104 13.3417 4.05487C13.3981 3.91869 13.4808 3.79496 13.585 3.69074C13.6892 3.58651 13.8129 3.50384 13.9491 3.44743C14.0853 3.39103 14.2313 3.362 14.3786 3.362C14.526 3.362 14.672 3.39103 14.8082 3.44743C14.9443 3.50384 15.0681 3.58651 15.1723 3.69074C15.2765 3.79496 15.3592 3.91869 15.4156 4.05487C15.472 4.19104 15.501 4.337 15.501 4.48439C15.501 5.10522 14.999 5.60731 14.3792 5.60731Z" fill="white"/>
<path d="M9.3719 12.6062C11.0995 12.6062 12.5 11.2057 12.5 9.4781C12.5 7.75049 11.0995 6.34998 9.3719 6.34998C7.64428 6.34998 6.24377 7.75049 6.24377 9.4781C6.24377 11.2057 7.64428 12.6062 9.3719 12.6062Z" fill="white"/>
</svg>
