<svg width="21" height="21" viewBox="0 0 21 21" fill="none" xmlns="http://www.w3.org/2000/svg">
<path d="M19.3143 5.12497C16.3143 0.499969 10.1893 -0.87503 5.4393 1.99997C0.8143 4.87497 -0.6857 11.125 2.3143 15.75L2.5643 16.125L1.5643 19.875L5.3143 18.875L5.6893 19.125C7.3143 20 9.0643 20.5 10.8143 20.5C12.6893 20.5 14.5643 20 16.1893 19C20.8143 16 22.1893 9.87497 19.3143 5.12497ZM16.6893 14.75C16.1893 15.5 15.5643 16 14.6893 16.125C14.1893 16.125 13.5643 16.375 11.0643 15.375C8.9393 14.375 7.1893 12.75 5.9393 10.875C5.1893 9.99997 4.8143 8.87497 4.6893 7.74997C4.6893 6.74997 5.0643 5.87497 5.6893 5.24997C5.9393 4.99997 6.1893 4.87497 6.4393 4.87497H7.0643C7.3143 4.87497 7.5643 4.87497 7.6893 5.37497C7.9393 5.99997 8.5643 7.49997 8.5643 7.62497C8.6893 7.74997 8.6893 7.99997 8.5643 8.12497C8.6893 8.37497 8.5643 8.62497 8.4393 8.74997C8.3143 8.87497 8.1893 9.12497 8.0643 9.24997C7.8143 9.37497 7.6893 9.62497 7.8143 9.87497C8.3143 10.625 8.9393 11.375 9.5643 12C10.3143 12.625 11.0643 13.125 11.9393 13.5C12.1893 13.625 12.4393 13.625 12.5643 13.375C12.6893 13.125 13.3143 12.5 13.5643 12.25C13.8143 12 13.9393 12 14.1893 12.125L16.1893 13.125C16.4393 13.25 16.6893 13.375 16.8143 13.5C16.9393 13.875 16.9393 14.375 16.6893 14.75Z" fill="white"/>
</svg>
