<svg width="26" height="25" viewBox="0 0 26 25" fill="none" xmlns="http://www.w3.org/2000/svg">
<g clip-path="url(#clip0_38_44)">
<path d="M25.2375 6.77812C25.0959 6.27316 24.8202 5.81598 24.4396 5.45521C24.0482 5.08333 23.5685 4.81733 23.0458 4.68229C21.0896 4.16666 13.2521 4.16666 13.2521 4.16666C9.98472 4.12949 6.71815 4.29299 3.47083 4.65625C2.94811 4.80126 2.46934 5.07321 2.07708 5.44791C1.69167 5.81875 1.4125 6.27604 1.26667 6.77708C0.916347 8.66431 0.746138 10.5806 0.758333 12.5C0.745833 14.4177 0.915625 16.3333 1.26667 18.2229C1.40937 18.7219 1.6875 19.1771 2.07396 19.5448C2.46042 19.9125 2.94167 20.1781 3.47083 20.3187C5.45312 20.8333 13.2521 20.8333 13.2521 20.8333C16.5236 20.8706 19.7943 20.7071 23.0458 20.3437C23.5685 20.2087 24.0482 19.9427 24.4396 19.5708C24.8201 19.2101 25.0955 18.7529 25.2365 18.2479C25.5959 16.3614 25.7707 14.4444 25.7583 12.524C25.7854 10.5954 25.6108 8.66934 25.2375 6.77708V6.77812ZM10.7604 16.0667V8.93437L17.2812 12.501L10.7604 16.0667Z" fill="white"/>
</g>
<defs>
<clipPath id="clip0_38_44">
<rect width="25" height="25" fill="white" transform="translate(0.758301)"/>
</clipPath>
</defs>
</svg>
