<svg width="24" height="24" viewBox="0 0 24 24" fill="none" xmlns="http://www.w3.org/2000/svg">
<path d="M18 11.4462C18.1846 11.7231 18.3692 12 18.4615 12.4615H15.5077C15.5077 12.3692 15.5077 12.1846 15.6 12C15.6923 11.8154 15.6923 11.7231 15.8769 11.5385C15.9692 11.3538 16.1538 11.2615 16.3385 11.1692C16.5231 11.0769 16.8 10.9846 17.0769 10.9846C17.4462 11.0769 17.8154 11.1692 18 11.4462V11.4462ZM9.50769 10.8C9.69231 10.6154 9.87692 10.3385 9.87692 9.96923C9.87692 9.78462 9.87692 9.6 9.78462 9.41538C9.69231 9.32308 9.6 9.13846 9.50769 9.13846C9.41538 9.04615 9.23077 9.04615 9.04615 8.95385H6.64615V11.0769H8.67692C8.95385 11.0769 9.23077 10.9846 9.50769 10.8V10.8ZM8.76923 12.3692H6.64615V14.8615H8.76923C8.95385 14.8615 9.13846 14.8615 9.32308 14.7692C9.50769 14.7692 9.69231 14.6769 9.78462 14.5846C9.87692 14.4923 10.0615 14.4 10.1538 14.2154C10.2462 14.0308 10.2462 13.8462 10.2462 13.6615C10.2462 13.2 10.1538 12.8308 9.87692 12.6462C9.6 12.4615 9.23077 12.3692 8.76923 12.3692ZM24 4.52308V19.4769C24 21.9692 21.9692 24 19.4769 24H4.52308C2.03077 24 0 21.9692 0 19.4769V4.52308C0 2.03077 2.03077 0 4.52308 0H19.4769C21.9692 0 24 2.03077 24 4.52308ZM15.1385 8.86154H18.8308V7.93846H15.1385V8.86154ZM12.1846 13.8462C12.1846 13.2923 12.0923 12.8308 11.8154 12.3692C11.5385 12 11.1692 11.7231 10.6154 11.5385C10.9846 11.3538 11.3538 11.0769 11.5385 10.8C11.7231 10.5231 11.8154 10.1538 11.8154 9.69231C11.8154 9.23077 11.7231 8.95385 11.6308 8.58462C11.4462 8.30769 11.2615 8.03077 11.0769 7.93846C10.8 7.75385 10.5231 7.66154 10.1538 7.56923C9.69231 7.38462 9.32308 7.38462 8.86154 7.38462H4.61538V16.4308H9.04615C9.41538 16.4308 9.87692 16.3385 10.2462 16.2462C10.6154 16.1538 10.9846 15.9692 11.2615 15.7846C11.5385 15.6 11.8154 15.3231 12 14.9538C12.0923 14.6769 12.1846 14.3077 12.1846 13.8462V13.8462ZM15.5077 13.5692H20.2154C20.2154 13.0154 20.2154 12.5538 20.1231 12.0923C20.0308 11.6308 19.8462 11.1692 19.5692 10.8923C19.2923 10.5231 18.9231 10.2462 18.5538 10.0615C18.0923 9.87692 17.6308 9.69231 17.0769 9.69231C16.6154 9.69231 16.1538 9.78462 15.6923 9.96923C15.3231 10.1538 14.9538 10.4308 14.5846 10.7077C14.3077 10.9846 14.0308 11.3538 13.9385 11.8154C13.7538 12.2769 13.6615 12.7385 13.6615 13.2C13.6615 13.6615 13.7538 14.2154 13.9385 14.5846C14.1231 15.0462 14.3077 15.4154 14.5846 15.6923C14.8615 15.9692 15.2308 16.2462 15.6 16.4308C16.0615 16.6154 16.5231 16.7077 16.9846 16.7077C17.7231 16.7077 18.3692 16.5231 18.9231 16.1538C19.4769 15.7846 19.8462 15.2308 20.1231 14.4923H18.5538C18.4615 14.6769 18.3692 14.8615 18.0923 15.0462C17.8154 15.2308 17.5385 15.3231 17.1692 15.3231C16.7077 15.3231 16.2462 15.2308 15.9692 14.9538C15.6923 14.5846 15.5077 14.1231 15.5077 13.5692V13.5692Z" fill="white"/>
</svg>
