<svg width="26" height="19" viewBox="0 0 26 19" fill="none" xmlns="http://www.w3.org/2000/svg">
<path d="M21.9223 1.67955C20.3286 0.960796 18.6203 0.429546 16.8338 0.127463C16.8179 0.124408 16.8014 0.126377 16.7867 0.133095C16.7719 0.139814 16.7596 0.150951 16.7515 0.164963C16.5328 0.549338 16.289 1.05038 16.1182 1.44621C14.2235 1.16313 12.2972 1.16313 10.4026 1.44621C10.2123 1.00753 9.99771 0.57978 9.75984 0.164963C9.75178 0.150778 9.73958 0.13939 9.72488 0.132317C9.71018 0.125245 9.69367 0.122824 9.67755 0.125379C7.89213 0.427463 6.1838 0.958713 4.58901 1.6785C4.57529 1.68426 4.56366 1.69407 4.55568 1.70663C1.31401 6.47225 0.425468 11.1202 0.861926 15.7098C0.863141 15.721 0.86663 15.7319 0.872182 15.7417C0.877733 15.7516 0.885231 15.7602 0.894218 15.767C2.78629 17.1446 4.89665 18.1939 7.13693 18.8712C7.15254 18.876 7.16925 18.876 7.18486 18.8712C7.20047 18.8663 7.21426 18.8569 7.22443 18.8441C7.7065 18.1994 8.13369 17.5154 8.50151 16.7993C8.50661 16.7895 8.50956 16.7788 8.51014 16.7677C8.51072 16.7567 8.50892 16.7457 8.50487 16.7354C8.50082 16.7252 8.49461 16.7159 8.48666 16.7082C8.47872 16.7005 8.46921 16.6947 8.4588 16.691C7.78589 16.4376 7.13389 16.1318 6.5088 15.7764C6.49757 15.77 6.4881 15.7609 6.48126 15.7499C6.47441 15.739 6.47039 15.7265 6.46956 15.7136C6.46874 15.7007 6.47113 15.6877 6.47652 15.676C6.48192 15.6642 6.49014 15.654 6.50047 15.6462C6.63172 15.5493 6.76297 15.4483 6.88797 15.3473C6.89922 15.3382 6.91277 15.3324 6.92712 15.3305C6.94146 15.3287 6.95604 15.3309 6.96922 15.3368C11.0598 17.1743 15.4901 17.1743 19.5328 15.3368C19.546 15.3305 19.5607 15.3281 19.5753 15.3297C19.5898 15.3314 19.6036 15.3371 19.615 15.3462C19.74 15.4483 19.8703 15.5493 20.0026 15.6462C20.013 15.6538 20.0213 15.6639 20.0269 15.6756C20.0325 15.6872 20.0351 15.7001 20.0344 15.713C20.0338 15.7259 20.03 15.7384 20.0234 15.7495C20.0167 15.7606 20.0074 15.7698 19.9963 15.7764C19.3734 16.1348 18.7255 16.4379 18.0453 16.69C18.0348 16.6938 18.0253 16.6997 18.0173 16.7075C18.0094 16.7153 18.0032 16.7246 17.9991 16.735C17.9951 16.7453 17.9933 16.7564 17.9939 16.7675C17.9945 16.7786 17.9974 16.7895 18.0026 16.7993C18.3776 17.515 18.8067 18.1962 19.2786 18.8431C19.2884 18.8564 19.3021 18.8663 19.3177 18.8715C19.3334 18.8767 19.3503 18.877 19.3661 18.8723C21.6102 18.1969 23.724 17.147 25.6182 15.767C25.6274 15.7606 25.6352 15.7522 25.6409 15.7425C25.6467 15.7328 25.6503 15.722 25.6515 15.7108C26.1723 10.4045 24.7786 5.79413 21.9546 1.70871C21.9477 1.69544 21.9363 1.68509 21.9223 1.67955ZM9.11297 12.915C7.88172 12.915 6.86609 11.8014 6.86609 10.4358C6.86609 9.06913 7.86193 7.95663 9.11297 7.95663C10.3734 7.95663 11.3796 9.0785 11.3598 10.4358C11.3598 11.8025 10.364 12.915 9.11297 12.915ZM17.4203 12.915C16.188 12.915 15.1734 11.8014 15.1734 10.4358C15.1734 9.06913 16.1682 7.95663 17.4203 7.95663C18.6807 7.95663 19.6869 9.0785 19.6671 10.4358C19.6671 11.8025 18.6817 12.915 17.4203 12.915Z" fill="white"/>
</svg>
