<svg width="256" height="256" viewBox="0 0 256 256" fill="none" xmlns="http://www.w3.org/2000/svg">
<path d="M12 12H244V244H12V12Z" fill="#F7DF1E"/>
<path d="M73.0014 205.876L90.7548 195.131C94.1805 201.204 97.2961 206.343 104.77 206.343C111.934 206.343 116.452 203.54 116.452 192.64V118.511H138.253V192.948C138.253 215.529 125.017 225.808 105.704 225.808C88.2636 225.808 78.1398 216.775 73.0005 205.874L73.0014 205.876ZM150.095 203.54L167.847 193.262C172.52 200.893 178.594 206.499 189.339 206.499C198.373 206.499 204.133 201.983 204.133 195.753C204.133 188.278 198.215 185.63 188.248 181.271L182.799 178.933C167.069 172.239 156.636 163.829 156.636 146.075C156.636 129.723 169.094 117.264 188.561 117.264C202.421 117.264 212.388 122.092 219.551 134.706L202.575 145.608C198.837 138.912 194.79 136.265 188.56 136.265C182.175 136.265 178.126 140.314 178.126 145.608C178.126 152.149 182.175 154.798 191.518 158.847L196.968 161.182C215.501 169.126 225.935 177.223 225.935 195.442C225.935 215.066 210.518 225.811 189.805 225.811C169.561 225.811 156.479 216.155 150.094 203.54" fill="black"/>
</svg>
